<?xml version="1.0" encoding="utf-8"?>
<svg version="1.1" xmlns:xlink="http://www.w3.org/1999/xlink" width="12px" height="12px" xmlns="http://www.w3.org/2000/svg">
  <g transform="matrix(1 0 0 1 -807 -236 )">
    <path d="M 12 3.47621031580702  C 12 3.47621031580702  12 8.5257895175402  12 8.5257895175402  C 12 8.6582784767936  11.996001332889 8.78926756103658  11.996001332889 8.9237563536372  C 11.996001332889 9.03574702108158  11.996001332889 9.14723773018915  11.9910029990003 9.25922839763354  C 11.9880149698498 9.5036365832991  11.9666282606368 9.74747259028311  11.9270243252249 9.98866761103241  C 11.885791098152 10.2300527365251  11.8088032511199 10.4639386101301  11.6986004665112 10.6826097825181  C 11.4749904973908 11.1218072080659  11.1180280159946 11.4788589226464  10.6789403532156 11.7025247896009  C 10.460486078032 11.8127219710304  10.2268283884214 11.8897286453769  9.98567144285232 11.9310057495209  C 9.74437378754988 11.9706596664571  9.50042955425556 11.9920519044205  9.25591469510164 11.9950004166319  C 9.14395201599461 11.9980001666528  9.03248917027656 11.9995000416632  8.92052649116965 12  C 8.788070643119 12  8.65511496167949 12  8.52065978007329 12  C 8.52065978007329 12  3.47234255248247 12  3.47234255248247 12  C 3.33988670443182 12  3.20693102299231 12  3.07247584138622 12  C 2.9605131622792 12  2.84905031656115 12  2.73708763745412 11.9950004166319  C 2.4925727783002 11.9920519044205  2.24862854500589 11.9706596664571  2.00733088970344 11.9310057495209  C 1.76617214047917 11.8897358958131  1.53251339602457 11.8127288738212  1.31406197934018 11.7025247896009  C 0.8749947485652 11.4788307881819  0.518039962598323 11.1217867709544  0.294401866044609 10.6826097825181  C 0.184192176373585 10.4639414694151  0.107203981750558 10.2300545398434  0.0659780073308411 9.98866761103242  C 0.0263834638664093 9.74747140853216  0.00499681690007492 9.50363611123982  0.0019993335554318 9.25922839763354  C 0.00299900033326139 9.14523789684193  0 9.03324722939755  0 8.92175652028997  C 0 8.78926756103658  0 8.65627864344638  0 8.52178985084576  C 0 8.52178985084576  0 3.47221064911258  0 3.47221064911258  C 0 3.33972168985918  0 3.20673277226898  0 3.07224397966836  C 0 2.96025331222398  0 2.84876260311641  0.0049983338886932 2.73677193567202  C 0.00799581723322262 2.49236422206575  0.0293824641996707 2.2485289247734  0.0689770076641025 2.00733272227315  C 0.111472075612937 1.76752770105678  0.189293241748146 1.53535373116038  0.299900033322274 1.31839013415549  C 0.523566243441678 0.879233574251231  0.880513339269328 0.522197249085373  1.31956014661785 0.298475127072741  C 1.53801442180145 0.188277945643229  1.77167211141204 0.111271271296708  2.01282905698099 0.0699941671527355  C 2.25412884426976 0.0303572040848934  2.49807179543643 0.00896507855522799  2.74258580473179 0.00599950004166061  C 2.85304898367212 0.00299975002083386  2.96501166277903 0  3.0764745084972 0  C 3.20893035654785 0  3.34188603798736 0  3.47634121959345 0  C 3.47634121959345 0  8.52465844718427 0  8.52465844718427 0  C 8.65711429523492 0  8.79006997667443 0  8.92452515828052 0  C 9.03648783738754 0  9.14795068310559 0  9.25991336221261 0.00499958336805406  C 9.50442737150797 0.00796516188161434  9.74837032267465 0.0293572874112868  9.9896701099633 0.068994250479129  C 10.2308252525136 0.110278602030398  10.4644818879319 0.187284928946333  10.6829390203266 0.297475210399135  C 11.1220062511017 0.521169211818155  11.4789610370685 0.87821322904562  11.7025991336221 1.31739021748188  C 11.8128019182309 1.53606138986994  11.889789765263 1.76994726347487  11.9310229923359 2.01133238896759  C 11.9706269277477 2.25252740971689  11.9920136369608 2.49636341670091  11.9950016661113 2.74077160236647  C 11.9980006664446 2.85226231147404  11.9995001666111 2.96425297891842  12 3.0762436463628  C 12 3.2087326056162  12 3.3417215232064  12 3.47621031580702  Z M 5.03148806500758 6.01755291688178  L 8 2.99483737738771  L 6.94718131030982 2  L 3 6.01755291688178  L 6.92229558151348 10  L 7.96140172676485 8.99948373773877  L 5.03148806500758 6.01755291688178  Z " fill-rule="nonzero" fill="#333333" stroke="none" transform="matrix(1 0 0 1 807 236 )" />
  </g>
</svg>