<?xml version="1.0" encoding="utf-8"?>
<svg version="1.1" xmlns:xlink="http://www.w3.org/1999/xlink" width="32px" height="30px" xmlns="http://www.w3.org/2000/svg">
  <g transform="matrix(1 0 0 1 0 -326 )">
    <path d="M 31.9159978458536 16.0869163602378  C 31.9161275317073 7.20860216667353  24.7842442926829 0.0170486870260333  15.9800457365854 0.0170486870260333  C 7.17947841560976 0.0170486870260333  0.0477248624390086 7.20860219815535  0.0477248624390086 16.0869163602378  C 0.0477248624390086 22.0186958127485  3.23439653463415 27.1995541748719  7.97549789658538 29.9836639836032  C 8.45443240585364 28.6239763833573  9.23437068487806 27.5160343349047  10.2063755863415 26.6627149340438  C 10.9769763902439 25.9796670989957  11.8869908604878 25.4408661919246  12.9058127921951 25.0722060750154  C 11.0534917931707 23.4458643098995  10.9992825756098 23.0030536749334  11.6353978380488 23.0641265019881  C 11.0465351596879 22.6026816210814  10.5468411806883 22.0359736627033  10.1612444721951 21.3922743696659  C 1.99160494829266 20.7738303357245  8.73857685853659 4.59855644910846  15.9910691278049 8.44300552867389  C 19.0550567960976 6.81823310284898  21.9980463765854 8.74719265160894  23.7842269658537 11.5718432898545  C 26.2495789268293 15.4329010029924  26.5536952195122 20.9709111617955  21.9795011434147 21.3852124215618  C 21.5616492643902 22.0853920557491  21.0243555902439 22.6683955420373  20.4073043043903 23.1350075972945  C 20.7228330458537 23.2421138941586  20.5883475043902 23.7648292387784  19.5164835278049 25.080052677024  L 19.5083132565854 25.080052677024  C 20.524152382439 25.4502821332241  21.4314434185366 25.9898676941996  22.19958016 26.6731771120312  C 23.0504572878049 27.4230519657307  23.7531020487805 28.3689614088133  24.2347599921951 29.5080283454806  C 24.2390396565854 29.5182289406846  24.2429302946342 29.5288218628408  24.247339644878 29.5390224895265  C 24.2792426770732 29.6152654179955  24.3112753951219 29.6913776022956  24.3412331082927 29.7694514213568  C 28.8872850731707 26.9387850402132  31.9159978458536 21.8698717055134  31.9159978458536 16.0869163602378  Z " fill-rule="nonzero" fill="#b6e7fc" stroke="none" transform="matrix(1 0 0 1 0 326 )" />
  </g>
</svg>