<?xml version="1.0" encoding="utf-8"?>
<svg version="1.1" xmlns:xlink="http://www.w3.org/1999/xlink" width="17px" height="14px" xmlns="http://www.w3.org/2000/svg">
  <g transform="matrix(1 0 0 1 -8 -341 )">
    <path d="M 0.229258401223168 13.9848700528814  C 0.704021614153643 12.7533260757668  1.47954278605026 11.6921426123192  2.4931695299891 10.8589270917238  C 1.50665709268293 11.6619848598594  0.715077943822337 12.7048274885159  0.228995158296325 13.9847469612237  Z M 16.743700216265 13.5659850821  C 16.77647427751 13.6377482000827  16.8067474992646 13.7108653559322  16.8372839639461 13.783859420124  L 16.838995074656 13.7828746868623  C 16.8087218529014 13.7093882560397  16.7760794131198 13.6377482297148  16.743700216265 13.5659850821  Z M 7.80822733303239 8.77570369719717  C 8.43501482542408 8.84931321967753  8.72221561523116 8.82481774273668  9.3565056260939 8.80746167083919  C 9.36035576693872 8.80751024303544  9.36419881521428 8.80713844335389  9.36795678846741 8.80635381628775  L 9.37190546405532 8.80598454131461  C 9.64304830858392 8.75293153309633  12.1936337413032 7.33280929918146  12.846219294008 7.53837438253828  C 13.472480300546 7.09917908081025  14.0177932832617 6.55043116659778  14.4418817574955 5.89139203069038  C 14.2844609663487 5.90456295659362  14.1220384962213 5.9129332782141  13.9530348895522 5.91477968271187  C 15.0536642446305 4.42141723092186  15.6095070711613 2.58610283522114  15.2812399411722 0.178529751996678  L 8.43870025808519 0.209918421033478  L 8.35656767277759 0.209918421033478  L 1.53640382858389 0.178529751996678  C 1.50439925475947 0.417117886721087  1.48073841146632 0.656620208667732  1.46545916272296 0.896653446614323  C 1.4678283807499 1.35566668302602  1.48191200407715 1.83523643369983  1.48388635771388 2.33093133969408  C 1.62327484994539 3.73049705934687  2.11804471542775 4.90172553154196  2.86460888020384 5.91465659105415  C 2.72537268982146 5.91313379793655  2.58622233668373 5.90750976424977  2.44736481712411 5.89779285615543  C 2.83868281496586 6.50369362277115  3.34584003593432 7.03710887453565  3.94352047202038 7.47141186883835  C 4.94477463997086 7.56053108835056  7.63132637518747 8.79059793594047  7.80822733303239 8.77570369719717  Z M 14.6653771569858 10.8686514512112  C 15.5492238388933 11.5977303922613  16.2523525088314 12.499385526449  16.7309328075719 13.5369351545597  C 16.2419543181652 12.4647964150475  15.5288223219512 11.5745889235552  14.6653771569858 10.8686514512112  Z " fill-rule="nonzero" fill="#fce9ea" stroke="none" transform="matrix(1 0 0 1 8 341 )" />
  </g>
</svg>