<?xml version="1.0" encoding="utf-8"?>
<svg version="1.1" xmlns:xlink="http://www.w3.org/1999/xlink" width="17px" height="7px" xmlns="http://www.w3.org/2000/svg">
  <g transform="matrix(1 0 0 1 -8 -351 )">
    <path d="M 16.743700216265 4.38621348709842  L 16.7309328075719 4.35653748481076  C 16.2523525405169 3.30109907000843  15.5490922491154 2.38389815764509  14.6653771569858 1.64224889002526  C 13.8857756880379 0.987999787922661  12.9649429946851 0.471362118620675  11.9339420908337 0.116878022943638  L 5.23763524776118 0.113372002825884  C 5.23613255756447 0.112043199135087  5.23459651992549 0.110748938280096  5.2330284648562 0.109490340925163  C 4.1990002356607 0.462471809184194  3.27540345989078 0.978358194920077  2.49330115145247 1.63235686916738  C 1.4795428177357 2.48006335838522  0.704153267302511 3.55954308844412  0.229390022686589 4.8121953986207  C 2.61650001357118 6.13459249951217  5.39137060624683 6.89264497251469  8.3530138615799 6.89264494237176  C 11.4652335285912 6.89264494237176  14.3710687130979 6.0560825831455  16.8372839639461 4.60784427922624  C 16.8073847246782 4.53347829435103  16.7761858169618 4.45959112054089  16.743700216265 4.38621348709842  Z " fill-rule="nonzero" fill="#3b9cbd" stroke="none" transform="matrix(1 0 0 1 8 351 )" />
  </g>
</svg>