<?xml version="1.0" encoding="utf-8"?>
<svg version="1.1" xmlns:xlink="http://www.w3.org/1999/xlink" width="10px" height="2px" xmlns="http://www.w3.org/2000/svg">
  <g transform="matrix(1 0 0 1 -11 -348 )">
    <path d="M 1.74801178947367 1.88203672628725  L 8.69309783414636 1.88537976715446  L 8.70169811964056 1.88537976715446  C 9.83011250115533 0.726034634579946  9.97153968472399 0.26527073821137  9.63940420025674 0.170858548726301  C 8.96257398305522 -0.0216547555555735  6.31709344698331 1.3083009595664  6.03601369550707 1.35798552281841  C 6.03423901412067 1.35833135176154  6.03328343414636 1.35810079913279  6.03191831989728 1.35833135176154  C 6.02802174852712 1.35907142374316  6.0240351877575 1.35941968145289  6.02004172734274 1.35936886634147  C 5.36232330680358 1.37573826948511  5.06431597432604 1.39856320173442  4.41424225930679 1.32985782460702  C 4.23076912965338 1.3438063973984  1.4444074228498 0.191839032195105  0.405954957638007 0.108378175826545  C -0.263503544030831 0.054543609756081  -0.206577754043641 0.444988288346906  1.74323385673939 1.8784631327913  C 1.74479237443568 1.87968647587178  1.74638547848853 1.88087801761128  1.74801178947367 1.88203672628725  Z " fill-rule="nonzero" fill="#c9caca" stroke="none" transform="matrix(1 0 0 1 11 348 )" />
  </g>
</svg>