<?xml version="1.0" encoding="utf-8"?>
<svg version="1.1" xmlns:xlink="http://www.w3.org/1999/xlink" width="33px" height="27px" xmlns="http://www.w3.org/2000/svg">
  <g transform="matrix(1 0 0 1 -63 -621 )">
    <path d="M 10.0375 5.484375  C 10.6791666666667 6.14062499999989  11 6.93750000000011  11 7.87500000000017  C 11 8.81249999999972  10.6791666666667 9.60937499999989  10.0375 10.2656249999998  C 9.39583333333337 10.9218749999997  8.61666666666667 11.2500000000002  7.69999999999996 11.2500000000002  C 6.78333333333335 11.2500000000002  6.00416666666665 10.9218749999997  5.3625 10.2656249999998  C 4.72083333333335 9.60937499999989  4.39999999999998 8.81249999999972  4.39999999999998 7.87500000000017  C 4.39999999999998 6.93750000000011  4.72083333333335 6.14062499999989  5.3625 5.484375  C 6.00416666666665 4.82812500000011  6.78333333333335 4.50000000000017  7.69999999999996 4.50000000000017  C 8.61666666666667 4.50000000000017  9.39583333333337 4.82812500000011  10.0375 5.484375  Z M 21.45 7.31249999999983  L 28.6 14.6250000000002  L 28.6 22  L 4.39999999999998 22  L 4.39999999999998 19.1249999999998  L 9.90000000000002 13.5  L 12.65 16.3125000000002  L 21.45 7.31249999999983  Z M 30.63671875 2.41699218750017  C 30.5278645833333 2.30566406249989  30.3989583333333 2.24999999999983  30.25 2.24999999999983  L 2.74999999999996 2.24999999999983  C 2.60104166666666 2.24999999999983  2.47213541666666 2.30566406249989  2.36328124999996 2.41699218750017  C 2.25442708333338 2.52832031249989  2.20000000000005 2.66015624999989  2.20000000000005 2.81250000000017  L 2.20000000000005 24.1874999999998  C 2.20000000000005 24.3398437500001  2.25442708333338 24.4716796875001  2.36328124999996 24.5830078124998  C 2.47213541666666 24.6943359375001  2.60104166666666 24.7500000000002  2.74999999999996 24.7500000000002  L 30.25 24.7500000000002  C 30.3989583333333 24.7500000000002  30.5278645833333 24.6943359375001  30.63671875 24.5830078124998  C 30.7455729166666 24.4716796875001  30.8 24.3398437500001  30.8 24.1874999999998  L 30.8 2.81250000000017  C 30.8 2.66015624999989  30.7455729166666 2.52832031249989  30.63671875 2.41699218750017  Z M 32.1921875 0.826171874999829  C 32.7307291666666 1.37695312499972  33 2.03906249999983  33 2.81250000000017  L 33 24.1874999999998  C 33 24.9609375000002  32.7307291666666 25.6230468750003  32.1921875 26.1738281250002  C 31.6536458333333 26.7246093750001  31.00625 27  30.25 27  L 2.74999999999996 27  C 1.99375000000005 27  1.34635416666669 26.7246093750001  0.80781250000004 26.1738281250002  C 0.269270833333394 25.6230468750003  0 24.9609375000002  0 24.1874999999998  L 0 2.81250000000017  C 0 2.03906249999983  0.269270833333394 1.37695312499972  0.80781250000004 0.826171874999829  C 1.34635416666669 0.275390624999886  1.99375000000005 0  2.74999999999996 0  L 30.25 0  C 31.00625 0  31.6536458333333 0.275390624999886  32.1921875 0.826171874999829  Z " fill-rule="nonzero" fill="#ffffff" stroke="none" transform="matrix(1 0 0 1 63 621 )" />
  </g>
</svg>