<?xml version="1.0" encoding="utf-8"?>
<svg version="1.1" xmlns:xlink="http://www.w3.org/1999/xlink" width="32px" height="29px" xmlns="http://www.w3.org/2000/svg">
  <g transform="matrix(1 0 0 1 0 -507 )">
    <path d="M 31.9890713125 15.8507356955129  C 31.9889411875 7.09698431944446  24.830776 0  16.0018214375 0  C 7.17299703125002 0  0.0147016875000077 7.09711330128209  0.0147016875000077 15.8504777008548  C 0.0147016875000077 21.2411622200855  2.73022221874999 26.002755099359  6.87818246875003 28.8663667916667  C 6.89574643750001 28.8056117916667  6.91539206250002 28.7461467029915  6.93412696874998 28.6862946378205  C 6.94596637500001 28.6486291217949  6.95702518749999 28.6105766292735  6.96925490625 28.573169076923  C 7.01101812500002 28.4450805074787  7.05499312500001 28.318281849359  7.10209059375001 28.1934180427351  C 7.10456256250001 28.186710491453  7.10755493750003 28.1801319220085  7.11002690625003 28.1735533525641  C 7.15478250000001 28.0556550918803  7.20214018749999 27.9393047681624  7.25157953125 27.8241153429487  C 7.26680165624998 27.7887716549145  7.28280437500001 27.7539439561966  7.29841681250002 27.7188582628205  C 7.39397127376867 27.5033285012621  7.49849063870238 27.2918160432257  7.61170606249999 27.0848649412393  C 7.62757868749998 27.0558418589744  7.64280081250001 27.0265607820513  7.65893362499997 26.9977956634615  C 7.78720669356767 26.7692186708359  7.92599988047186 26.5466027953046  8.07487456249999 26.3306515619659  C 8.09478040624998 26.3017574615385  8.11546684375003 26.273508332265  8.13563290625001 26.2448721955128  C 8.21424425303042 26.1340348579226  8.29536266265308 26.0249663833641  8.37892646875002 25.9177496858974  C 8.41015131249998 25.8777623108974  8.4412460625 25.8379039487179  9 25.7985615448717  L 9 15.2289965779914  L 8.48079753125 15.2289965779914  C 8.47845565624999 15.1535365331197  8.47507296875 15.0784634647435  8.47507296875 15.0023584797009  C 8.47507296875 14.6860712809829  8.49719056250001 14.3750727403847  8.53570121874998 14.069104832265  C 8.53999462500002 14.032471232906  8.54493856250002 13.9962246100428  8.54975240624998 13.9597200235042  C 8.55729840625003 13.9059305694444  8.565104625 13.8522700972222  8.57382153125002 13.7987386068376  C 8.78172693750003 12.4568398557692  9.35860593749999 11.251672107906  10.18489334375 10.2665638888889  C 11.56542171875 8.60167035683764  13.6585270625 7.53955421794876  16.0019515625 7.53955421794876  C 19.195732625 7.32388041239312  23.8055603125 10.307454198718  23.54001903125 15.2289965779914  C 23.53884809375 15.2296415491453  23.5375470625 15.2302864893162  23 15.2310604423077  L 23 25.8059140673076  C 23.57592759375 25.8479653066239  23.60884378125 25.8907904989317  23.6420201875 25.9334866784188  C 23.65776271875 25.9534803504273  23.67324503125 25.9738610299146  23.68872734375 25.9939836837607  C 23.7595476592169 26.0867160842397  23.8284731819173 26.180856062586  23.8954618125 26.2763461185898  C 23.90443896875 26.2892452628205  23.91380640625 26.301886443376  23.9227835625 26.3147855876068  C 24.0796142309317 26.5414026057742  24.2253682275791 26.7753621681646  24.3595410625 27.0158544839744  L 24.37033965625 27.0357191741454  C 24.4414359298395 27.1640187476285  24.5091560044938 27.2941291465122  24.57343125 27.4259185117521  C 24.62885534375 27.5390440726496  24.6820676875 27.6535885267094  24.73280803125 27.7695519358974  L 24.74581840625 27.7988330128205  C 24.8587192957572 28.05975665492  24.9590127793784 28.3258670805131  25.0463575 28.5962585608975  C 25.049349875 28.6052879711539  25.0520820625 28.614704357906  25.05494434375 28.6238627499999  C 25.08031453125 28.7034505235043  25.106205125 28.782909284188  25.12949365625 28.863786969017  C 25.12845284375 28.8644319401709  25.127412 28.8650768803419  25.126631375 28.8658508333333  C 29.2740711875 26.0022391410256  31.9890713125 21.2410332382478  31.9890713125 15.8507356955129  Z " fill-rule="nonzero" fill="#f5a854" stroke="none" transform="matrix(1 0 0 1 0 507 )" />
  </g>
</svg>