<?xml version="1.0" encoding="utf-8"?>
<svg version="1.1" xmlns:xlink="http://www.w3.org/1999/xlink" width="8px" height="11px" xmlns="http://www.w3.org/2000/svg">
  <g transform="matrix(1 0 0 1 -8 -522 )">
    <path d="M 0.311982124999986 10.663757625  C 0.33344921874999 10.63747671875  0.354656062499998 10.61093559375  0.376643562500021 10.585175125  C 0.461366013285726 10.4853005075493  0.548429412856137 10.3874355180932  0.637761312500004 10.29166159375  L 0.643225687499978 10.286067125  C 0.729466667924669 10.194296675857  0.817742125646873 10.1044595804286  0.907986312499986 10.01662275  C 0.936869281249983 9.98826018750003  0.966532906249995 9.96080834375005  0.995806187500023 9.93296618750003  C 1.09435773558818 9.83929221693916  1.19508536936564 9.74793460045248  1.29790656249997 9.65896818750002  C 1.3066235 9.65142218749997  1.31508021874998 9.64361596875005  1.32392725 9.63606996875001  L 1.32392725 9.63724090624999  C 2.08204043749998 8.98737384374999  2.95997893750001 8.46266637500003  3.93510478125 8.08302434375003  C 3.99924581250002 8.05817456249997  4.06351693750003 8.03345490624997  4.12843859374999 8.00977606250001  C 4.19192909374999 7.98661762500001  4.25580993749998 7.96397962499998  4.32008106249998 7.94199212499996  C 4.38513281249999 7.91987453125  4.4509651875 7.89866765625004  4.51679759375003 7.87772099999995  C 4.58080853125 7.85729475000005  4.64455924999999 7.83673840624999  4.70935078125001 7.81748306250006  C 4.78845371875002 7.79406443749997  4.86859746875001 7.77246724999998  4.94874125000001 7.75087006249998  C 5.04241578124999 7.72576009374995  5.13661071874998 7.70169093749996  5.23171637500002 7.67892281249999  C 5.31485253124998 7.65914709374999  5.39811878124999 7.63924125000005  5.48229574999999 7.62128696875004  C 5.54500565625 7.6078863125  5.60836606250001 7.59604687499996  5.67172646875002 7.58381715625001  C 5.81162309903311 7.55645367824536  5.95207914945439 7.53203219653983  6.09300165625001 7.51056887499999  C 6.17897568096714 7.49747319823598  6.26511101409744 7.48545936266544  6.35138721875001 7.47453021875003  C 6.4068113125 7.46737453125002  6.46184509375001 7.45982853124997  6.51765953124999 7.4534534375  C 6.6608929757889 7.43704869808539  6.80442257467723 7.42334202979725  6.94817203125001 7.41234071874999  L 7.75754599999999 7.41234071874999  L 7.75754599999999 7.40869781250001  L 7.75208165625003 7.40882793749995  C 3.67177525 7.40882793749995  0.35205400000001 4.16144425000005  0.230797531250005 0.110281031249997  L 0.228715874999978 0.110281031249997  L 0.223121437500026 10.7709629375  C 0.252264625000009 10.73479415625  0.282318531249985 10.699406  0.311982124999986 10.663757625  Z " fill-rule="nonzero" fill="#b0c21e" stroke="none" transform="matrix(1 0 0 1 8 522 )" />
  </g>
</svg>