<?xml version="1.0" encoding="utf-8"?>
<svg version="1.1" xmlns:xlink="http://www.w3.org/1999/xlink" width="16px" height="15px" xmlns="http://www.w3.org/2000/svg">
  <g transform="matrix(1 0 0 1 -8 -515 )">
    <path d="M 1.99717496774196 2.80813638319671  C 3.46091503225807 1.13120873975413  5.67606587096776 0.0947742725410308  7.99852270967745 0.110002776639362  L 8.0018801935484 0.102708473360622  C 5.58272706451612 0.102708473360622  3.42210222580644 1.1562909836066  1.99717496774196 2.80813638319671  Z M 0.333998806451632 6.31222924180327  C 0.325134967741917 6.36533707991805  0.316942645161305 6.41857287909841  0.309153225806426 6.47193663934422  C 0.316539741935458 6.4184448872951  0.325537870967764 6.36533707991805  0.333998806451632 6.31222924180327  Z M 0.238108322580615 7.73116801229503  C 0.363141999999982 11.7159187192623  3.78995103225805 14.9100666086066  8.0018801935484 14.9100666086066  L 8.00752080645162 14.909938647541  C 12.213406483871 14.9071232889344  15.6352463870968 11.7193739139344  15.7656520967742 7.74102175204916  C 13.7018578387097 8.9472732786885  8.32433548387098 7.17974240778688  6.73005541935481 4.48890313524589  C 4.50698087096777 7.97431226434423  2.30284270967741 8.90645062500005  0.251135451612925 7.72758482581969  C 0.23412721088016 7.34470936075047  0.248721350022549 6.96115233228318  0.294783096774211 6.58045576844268  C 0.253802318226292 6.88754400426524  0.232900655190804 7.19676323414387  0.232199096774195 7.50632354508196  C 0.232199096774195 7.58169826844266  0.235825193548408 7.65630516393446  0.238108322580615 7.73116801229503  Z " fill-rule="nonzero" fill="#fce9ea" stroke="none" transform="matrix(1 0 0 1 8 515 )" />
  </g>
</svg>