<?xml version="1.0" encoding="utf-8"?>
<svg version="1.1" xmlns:xlink="http://www.w3.org/1999/xlink" width="9px" height="19px" xmlns="http://www.w3.org/2000/svg">
  <g transform="matrix(1 0 0 1 -15 -515 )">
    <path d="M 1.24869896874998 0.113459164999995  L 1.25182143749998 0.113327304999984  C 1.43982099999999 1.42129436666664  0.986280156250018 2.93862049666666  0.0201314999999909 4.62404041833338  L 0.0197411875000171 4.6246996233333  C 1.56419999999997 7.39686203833332  6.77367478125001 9.21781162000002  8.77297546875002 7.97510446000001  C 8.64664496875002 12.073691265  5.33186762499997 15.35764965  1.25728578125 15.360681955  L 1.25728578125 15.3643734333333  L 2.06314696875 15.3643734333333  C 2.20769196875 15.3753160083334  2.35080584374998 15.3896863733333  2.49300896875002 15.4060343216667  C 2.54921368750001 15.4124943849999  2.60463778125001 15.4202728583333  2.66045218750003 15.427523955  C 2.74632050000002 15.4387302183334  2.83166840625 15.450595655  2.91662600000001 15.46364761  C 2.98063693749998 15.4735354633333  3.04425753124997 15.4840825216667  3.10774806249998 15.4950251283333  C 3.1842489375 15.5084726316667  3.26022937499999 15.5227111683333  3.33594962500001 15.5376088466667  C 3.40048096875 15.5502653166667  3.46514240624998 15.56252627  3.52915334375001 15.57650115  C 3.60968740624998 15.5939037883334  3.68905056249997 15.6131521816667  3.76867390625 15.6324005433333  C 3.87158578125002 15.6571861383334  3.97345684375 15.6835537683334  4.07480750000002 15.7113716366666  C 4.14948690624999 15.7319384083333  4.22442653125 15.7522414916666  4.29845543750002 15.77439033  C 4.36545875000002 15.794429725  4.43142121875002 15.8161830466667  4.49764390625 15.83754082  C 4.56087421874997 15.8579757316667  4.62397440625 15.8786743316666  4.68642409375002 15.9001639966667  C 4.752776875 15.9232356966667  4.81860925000001 15.9468347416666  4.88418143749999 15.9709611  C 4.94637090624997 15.9940328  5.00777978125001 16.0178955016667  5.06918865624999 16.0421537516667  C 6.02675053125 16.4193429233334  6.89063784374997 16.9390491950001  7.63951365625002 17.581101375  L 7.63951365625002 17.5778054133333  C 7.66540424999999 17.59995422  7.69038412499998 17.6234214366667  7.71601453124998 17.6459657916666  C 7.82115310736981 17.7385257095879  7.92422121821005 17.8334733074036  8.02514046875001 17.9307363666667  C 8.04816878125001 17.9530170333334  8.07132721875001 17.9749021833334  8.09409534374998 17.9973146783333  C 8.28483661005373 18.1858396747856  8.46678924319951 18.383284550373  8.63935915625001 18.589004635  C 8.65184909375 18.6036386883334  8.66381862499998 18.618931915  8.67604834374998 18.633829625  C 8.71494928124997 18.6807640266667  8.75398034375002 18.7276984283334  8.79184046874997 18.775423895  L 8.78650621874999 7.96719418999999  L 8.79001903124998 7.96508477833333  C 9.05556031250001 2.93492905000005  4.44560250000001 -0.114489123333328  1.25195156249998 0.105944379999983  L 1.24869896874998 0.113459164999995  Z " fill-rule="nonzero" fill="#7ea701" stroke="none" transform="matrix(1 0 0 1 15 515 )" />
  </g>
</svg>