<?xml version="1.0" encoding="utf-8"?>
<svg version="1.1" xmlns:xlink="http://www.w3.org/1999/xlink" width="19px" height="10px" xmlns="http://www.w3.org/2000/svg">
  <g transform="matrix(1 0 0 1 -7 -530 )">
    <path d="M 16.0620696047297 2.473443256579  C 15.2929539054054 1.8064915460526  14.4057182550675 1.26663046052636  13.4222763293919 0.874813453947354  C 13.4475304746622 0.884810888157858  13.4726510101351 0.895082203947368  13.4977715456081 0.905353552631595  L 13.4977715456081 5.31052157894737  L 5.43782371790542 5.31052157894737  L 5.43782371790542 0.935208881579001  C 5.48552601013512 0.915214013157879  5.53376274155403 0.896177828947316  5.58186586317566 0.876867730263143  C 4.58038526689188 1.27649095394736  3.67871869932435 1.82881460526312  2.90011599831081 2.51288516447369  L 2.90011599831081 8.55571404605269  C 4.92058135810811 9.46616473684207  7.15336863682433 9.9728836842105  9.50187066554054 9.9728836842105  C 12.1144054881757 9.9728836842105  14.5836998564189 9.34633256578945  16.7765347888513 8.233605131579  C 16.5410217926683 8.3522736983133  16.302753028813 8.46510847601542  16.0619359628378 8.57201121710523  L 16.0619359628378 2.473443256579  Z M 18.4821918766892 5.82983999999999  L 18.4688298699324 5.79875210526313  L 18.4821918766892 5.82983999999999  Z M 18.7995389594595 6.70564207236839  C 18.7965993192568 6.69591855263161  18.793793320946 6.6860580592105  18.7907200388514 6.67633457236843  C 18.7937932888514 6.68592115131582  18.7965993192568 6.69591858552633  18.7995389594595 6.70564207236839  Z M 1.42294883445948 4.17999049342109  C 1.40210413344596 4.21025667763161  1.38099221283784 4.24038592105262  1.36054837331079 4.27106296052636  C 1.38099221283784 4.24038592105262  1.40223774324323 4.21039365131583  1.42294883445948 4.17999049342109  Z M 0.369623753378391 6.22768286184214  C 0.367084974662134 6.23480430921052  0.364011724662134 6.241651875  0.361472945945934 6.24877332236838  C 0.364011724662134 6.241651875  0.367084974662134 6.23466736842101  0.369623753378391 6.22768286184214  Z M 0.225180714527028 6.65195726973684  C 0.212620462837833 6.69181003289475  0.201262763513512 6.73207365131577  0.189103373310786 6.77206335526319  C 0.201262763513512 6.73207365131577  0.212620462837833 6.69167309210525  0.225180714527028 6.65195726973684  Z M 0.933365788851347 4.97923694078952  C 0.916796922297294 5.00977703947365  0.901029778716236 5.04100187500001  0.884861805743242 5.07167891447364  C 0.9011634206081 5.0408649342105  0.916796954391884 5.00977703947365  0.933365788851347 4.97923694078952  Z M 0.563238888513524 5.74493036184208  C 0.547204525337861 5.78218105263159  0.530769268581082 5.81902088815787  0.515135734797298 5.85668243421048  C 0.530769268581082 5.81915782894737  0.547204493243271 5.78218105263159  0.563238888513524 5.74493036184208  Z M 18.0964314425676 5.01963750000004  C 18.0926900793919 5.01278993421056  18.0892159679054 5.00553154605268  18.0853409949324 4.99854703947369  L 18.0964314425676 5.01963750000004  Z M 17.3963971756757 3.91375763157896  C 17.3804964222973 3.8922563157895  17.3645956689189 3.87075500000003  17.3484276638513 3.84952759868418  C 17.3645956689189 3.87075500000003  17.3804964222973 3.89239328947372  17.3963971756757 3.91375763157896  Z M 17.6367792381757 4.25435493421048  C 17.6275594560811 4.24065983552634  17.6179388445946 4.22710167763159  17.6087190625 4.21354351973685  C 17.6179388445946 4.2272386184211  17.6275594560811 4.24065983552634  17.6367792381757 4.25435493421048  Z M 7.36555691385138 0.351386480263159  C 7.30048406418916 0.36412292763157  7.23541121452701 0.376722434210478  7.17100644594592 0.390828388157843  C 7.23527757263514 0.376722434210478  7.30048406418916 0.364396842105293  7.36555691385138 0.351386480263159  Z M 8.23421939020272 0.21402457236843  C 8.1768964864865 0.220735164473695  8.12024166385135 0.22867832236841  8.06345326351351 0.236210625000012  C 8.12037530574327 0.22867832236841  8.17703012837836 0.220735164473695  8.23421939020272 0.21402457236843  Z M 2.19553864527029 3.20174904605267  L 2.20115070608108 3.19586013157891  L 2.19553864527029 3.20174904605267  Z M 2.56326040878378 2.82417493421053  C 2.53319595777026 2.85348246710521  2.50273061317569 2.88237914473689  2.47306702364864 2.91223447368418  C 2.50273061317569 2.88237914473689  2.53319595777026 2.85348246710521  2.56326040878378 2.82417493421053  Z M 1.86068736317566 3.59329213815795  C 1.88300186824324 3.56576496710522  1.90478190202703 3.5378269407895  1.9273636587838 3.51071065789472  C 1.90478190202703 3.53782697368422  1.88300186824324 3.56576499999994  1.86068736317566 3.59329213815795  Z M 6.37703746283785 0.597213651315769  C 6.3106284189189 0.617482401315783  6.24515470777027 0.639120690789468  6.17928010304053 0.660621973684215  C 6.2450210658784 0.63912065789475  6.31049477702703 0.617482401315783  6.37703746283785 0.597213651315769  Z M 16.5289372516892 2.90566082236842  C 16.5055537719595 2.88237914473689  16.4816358209459 2.85964526315786  16.4581187635135 2.83650052631583  C 16.4817694628379 2.85964526315786  16.505553804054 2.88237914473689  16.5289372516892 2.90566082236842  Z M 10.9485725168919 0.236347598684233  C 10.891383222973 0.22881529605263  10.834327570946 0.220735164473695  10.7766038057433 0.21402457236843  C 10.834327570946 0.220735164473695  10.8912496131757 0.22881529605263  10.9485725168919 0.236347598684233  Z M 12.8352844560811 0.662265394736892  C 12.7674055760135 0.640079309210478  12.6995267280406 0.617482401315783  12.6307124831081 0.596665855263154  C 12.699526695946 0.617482401315783  12.7672719341216 0.640079342105309  12.8352844560811 0.662265394736892  Z M 17.0890715658784 3.52029720394739  C 17.1017654594594 3.53563572368421  17.1140584594594 3.55138509868425  17.1267523530406 3.56686059210529  C 17.1140584594594 3.55138513157897  17.1017654594594 3.53549878289471  17.0890715658784 3.52029720394739  Z M 11.8407520827703 0.391239243421069  C 11.7750111199325 0.376722434210478  11.7086020760135 0.363849046052678  11.6423266418919 0.350838684210544  C 11.7086020760135 0.36412292763157  11.7750111199325 0.376722434210478  11.8407520827703 0.391239243421069  Z " fill-rule="nonzero" fill="#f08519" stroke="none" transform="matrix(1 0 0 1 7 530 )" />
  </g>
</svg>