<?xml version="1.0" encoding="utf-8"?>
<svg version="1.1" xmlns:xlink="http://www.w3.org/1999/xlink" width="19px" height="8px" xmlns="http://www.w3.org/2000/svg">
  <g transform="matrix(1 0 0 1 -7 -530 )">
    <path d="M 13.2321353378379 0.73763566666662  C 13.1647585250129 0.714471834825986  13.0971436599007 0.691930001735841  13.0293004206081 0.670013393939371  C 12.9651629037162 0.649449151515114  12.9003572736486 0.629768030303012  12.8354180658784 0.61008690909091  C 12.7674055760135 0.589648818181786  12.699526695946 0.568832272727263  12.630846125 0.549655818181805  C 12.5549500793919 0.528460787878771  12.4778514172297 0.50915815151518  12.4011536486486 0.489350848484833  C 12.2967656211541 0.462647724263547  12.1919508550806 0.437454632567665  12.0867461739865 0.413780424242418  C 12.0049827139221 0.395001327977639  11.922978523134 0.377169240906937  11.8407520827703 0.360288181818191  C 11.7750111199324 0.347041272727324  11.7086020760135 0.335308303030274  11.6423266418919 0.323070666666695  C 11.499285449926 0.296785783603696  11.3557048383598 0.273189018548919  11.2116699459459 0.252294363636338  C 11.1245498108108 0.239678272727247  11.0367615945946 0.228449939393954  10.9485725168919 0.217726272727305  C 10.8912496131757 0.210787424242426  10.834327570946 0.203343909090904  10.7766038057433 0.197162030303048  C 10.6297286113009 0.181197812651249  10.4825413447682 0.167906387556286  10.3351239138514 0.1572951515152  L 8.67623378547296 0.1572951515152  C 8.52860028622774 0.167975035558811  8.38119173574114 0.181266328852416  8.23408578040539 0.197162030303048  C 8.1768964864865 0.203343909090904  8.12024169594594 0.210661242424294  8.06331965371623 0.217600090909059  C 7.90974045746918 0.236120702711332  7.75657990623546 0.257614650499363  7.60393470101349 0.282068363636313  C 7.52423262556079 0.295104076980124  7.44467978260525 0.308940517502037  7.36528969425677 0.323575333333338  C 7.30035045439189 0.335560636363653  7.2351439949324 0.347041272727324  7.17073922635137 0.35990969696968  C 6.98706603565063 0.397746335458692  6.80435753493839 0.439643289613628  6.62276430236489 0.485566030303062  C 6.54045450506754 0.506508757575716  6.45814467567567 0.527451484848484  6.37690382094593 0.550160454545448  C 6.31036113513511 0.568706121212131  6.24488742398648 0.588765727272744  6.17914649324325 0.608572969696979  C 6.11153486486484 0.628884878787858  6.04392323648648 0.649449121212115  5.97711333108106 0.670896515151526  C 5.91110514864863 0.692217727272691  5.84549779560808 0.714169727272747  5.78029130405406 0.736626393939446  C 5.71361500844591 0.759713848484807  5.64760682601349 0.783558272727305  5.58173225337839 0.807654999999954  C 5.53362913175675 0.825443696969728  5.48539236824325 0.84298006060601  5.4376900760135 0.861399606060559  L 5.4376900760135 4.89199066666663  L 13.4976379037162 4.89199066666663  L 13.4976379037162 0.833896484848424  L 13.4221427195946 0.805762606060625  C 13.3590587185143 0.782432454501645  13.2957195009113 0.759722247145532  13.2321353378379 0.73763566666662  Z M 9.50187066554054 3.89430963636369  C 9.23196109037377 3.89430963636369  9.01315614780407 3.68771868580336  9.01315614780407 3.43287583333336  C 9.01315614780407 3.17803298086324  9.23196109037377 2.97144203030302  9.50187066554054 2.97144203030302  C 9.7717802407073 2.97144203030302  9.99058518327701 3.17803298086324  9.99058518327701 3.43287583333336  C 9.99058518327701 3.68771868580336  9.7717802407073 3.89430963636369  9.50187066554054 3.89430963636369  Z M 9.50187066554054 2.22431669696971  C 9.23196109037377 2.22431669696971  9.01315614780407 2.0177257464095  9.01315614780407 1.76288289393938  C 9.01315614780407 1.50804004146937  9.23196109037377 1.30144909090905  9.50187066554054 1.30144909090905  C 9.7717802407073 1.30144909090905  9.99058518327701 1.50804004146937  9.99058518327701 1.76288289393938  C 9.99058518327701 2.0177257464095  9.7717802407073 2.22431669696971  9.50187066554054 2.22431669696971  Z M 2.90011599831081 2.3149002727273  L 2.90011599831081 2.31376481818177  L 2.8733920168919 2.3359691515152  C 2.7678091124364 2.42225797365211  2.66435956888296 2.51084679387122  2.5631267989865 2.60166418181814  C 2.53306234797299 2.62866263636363  2.50259700337835 2.65528260606061  2.47293341385137 2.68278569696975  C 2.38031683093118 2.76802400797374  2.28965699050275 2.85513737276858  2.20101706418922 2.94406509090913  L 2.19540503547296 2.94949003030308  C 2.10365876016311 3.04236171451464  2.01424229573939 3.1372610982296  1.92723004898647 3.23410921212121  C 1.90464829222975 3.25908909090913  1.88286825844597 3.28482593939395  1.86055375337838 3.31018427272727  C 1.8300884408784 3.34475239393942  1.79935587668916 3.37906818181818  1.76929142567565 3.41414090909086  C 1.73655455405407 3.45262000000002  1.70461943750001 3.49160375757572  1.67255067905404 3.53071366666666  C 1.58666558063601 3.6355328611113  1.50335370630376 3.74220933657239  1.42268158277028 3.85065790909096  C 1.40197052364863 3.87866563636362  1.38072496114864 3.90629490909089  1.3602811216216 3.93455496969693  C 1.20738280960597 4.14576747171566  1.06483846619375 4.36349836950023  0.933098569256742 4.58705957575762  C 0.91652970270269 4.61519348484853  0.900762559121631 4.64383203030297  0.884594554054047 4.67221824242426  C 0.815683504803019 4.79249862647532  0.749746543932304 4.9142769500221  0.686837226351372 5.03745430303036  C 0.644078881756741 5.12147751515147  0.602923983108099 5.20651003030298  0.562838027026999 5.29229948484851  C 0.546803663851335 5.32661527272728  0.530368407094613 5.36067872727278  0.514734873310829 5.39524684848482  C 0.463959331081071 5.5079086060606  0.415188096283771 5.62170581818179  0.369356501689197 5.73701693939393  C 0.366684113175666 5.74357730303029  0.363744472972996 5.75001151515153  0.361205694256739 5.75644572727276  C 0.312854024141132 5.87929309075162  0.267367760693958 6.00312897176718  0.224779853040559 6.12786366666671  C 0.212219601351364 6.16445036363632  0.200861902027043 6.20166784848482  0.188702511824317 6.2385068484848  C 0.169461256756733 6.29717169696971  0.149284668918938 6.35533190909086  0.131245998310817 6.41462757575755  L 0.173469839527002 6.44225681818182  C 0.314438766891897 6.53448048484847  0.457011108108134 6.6248117575758  0.601186895270246 6.7129983030303  C 0.616152315878367 6.72208187878789  0.630716875000019 6.73154396969699  0.645682295608083 6.74062754545457  C 0.788521888513515 6.82742630303028  0.933499398648621 6.91107103030299  1.07927863175678 6.99358033333328  C 1.25023611469027 7.09015260599858  1.42298902115465 7.18386281261598  1.5974563243243 7.27466700000002  C 1.83543678364629 7.39801807901097  2.07646485923988 7.5160534630752  2.32033956756754 7.62867472727271  C 2.43832587668919 7.68292393939396  2.55711390878378 7.73591157575754  2.67670363175677 7.78763754545457  C 2.75059540202705 7.81955627272725  2.82502164358107 7.8505918787879  2.89958152702701 7.88150133333329  L 2.89958152702701 2.3149002727273  Z M 18.8732970878378 6.41374445454551  L 18.8761031182432 6.4119781818182  C 18.8520515574324 6.33287524242428  18.8255948277027 6.25516009090904  18.7995389594595 6.17731875757579  C 18.7965993192568 6.16836133333334  18.793793320946 6.15915157575762  18.7907200388514 6.1503203333333  C 18.7010514829008 5.88585013697036  18.5980467026159 5.62557746938523  18.4820582347973 5.37039312121215  L 18.4686962601351 5.34175457575759  C 18.4166843499099 5.22863229838833  18.3621103852392 5.11657561414495  18.3050119662162 5.0056617272727  L 18.2794906013514 4.95608045454549  C 18.2210822678408 4.84412917914722  18.1600474958927 4.73341664297425  18.0964314425676 4.62402475757574  L 18.0853409949324 4.60459596969702  C 17.9475418680682 4.36938090443164  17.7978485742031 4.14055524080436  17.6367792381757 3.91891099999998  C 17.6275594560811 3.90629490909089  17.6179388445946 3.89393112121218  17.6087190625 3.88131503030309  C 17.5399519401316 3.78789889313941  17.4691630961867 3.69582407195264  17.3963971756757 3.60514863636365  C 17.3804964222973 3.58546751515155  17.3645956689189 3.5656602424242  17.3484276638513 3.5459791515151  C 17.314354597973 3.50421987878792  17.2805487837838 3.46233442424239  17.2455403851351 3.42120593939399  C 17.2066570135135 3.37553566666668  17.1665710574324 3.33062236363639  17.1266187432432 3.285709030303  C 17.1139248496622 3.27145284848484  17.1016318496622 3.25681815151518  17.0889379560811 3.24281430303029  C 16.9117357067203 3.0459262878004  16.7248640684409 2.8569824524003  16.5289372516892 2.67660381818177  C 16.5055537719595 2.65515645454548  16.4816358209459 2.63421372727271  16.4581187635135 2.61289251515154  C 16.35453910812 2.5197496541623  16.2486836938729 2.42888927708998  16.1406380388514 2.34038478787875  C 16.1143149189189 2.31881127272732  16.0886599121621 2.29635460606062  16.0620696047297 2.27515957575758  L 16.0620696047297 7.8962621515152  C 16.3051636497269 7.79687537605366  16.5456613712503 7.69192045893362  16.7833494020271 7.58149051515147  C 17.5095110984092 7.24137742336461  18.2080622632543 6.85106604073155  18.8732970878378 6.41374445454551  Z " fill-rule="nonzero" fill="#fefefe" stroke="none" transform="matrix(1 0 0 1 7 530 )" />
  </g>
</svg>