<?xml version="1.0" encoding="utf-8"?>
<svg version="1.1" xmlns:xlink="http://www.w3.org/1999/xlink" width="8px" height="9px" xmlns="http://www.w3.org/2000/svg">
  <g transform="matrix(1 0 0 1 -8 -515 )">
    <path d="M 0.28557112499999 7.08352931249999  C 0.240888348371584 7.49337924996269  0.226750113164314 7.90631793653699  0.243287468749998 8.31851778308828  C 2.23087884375002 9.5873943970588  4.36613771875 8.58411261397055  6.51974118750002 4.83217219852941  L 6.52013149999999 4.83148343382356  C 7.48628018750003 3.07040227941172  7.93995115625 1.48509860294121  7.75182143749998 0.118277007352958  L 7.74856887499999 0.118277007352958  C 5.49868881250001 0.101883970588233  3.35276146874997 1.21743741176465  1.93476325 3.02260069852946  C 1.10834571875 4.07464831985294  0.531596843749981 5.36170880514703  0.323691437499974 6.79479137867645  C 0.315494906250024 6.85196040441178  0.306777968749998 6.90899165073529  0.299622281249981 6.96671166176475  C 0.294808437500024 7.00555903676468  0.289864531249975 7.04440641176473  0.28557112499999 7.08352931249999  Z " fill-rule="nonzero" fill="#b0c21e" stroke="none" transform="matrix(1 0 0 1 8 515 )" />
  </g>
</svg>