<?xml version="1.0" encoding="utf-8"?>
<svg version="1.1" xmlns:xlink="http://www.w3.org/1999/xlink" width="32px" height="29px" xmlns="http://www.w3.org/2000/svg">
  <g transform="matrix(1 0 0 1 0 -706 )">
    <path d="M 31.7578801550388 15.8626024893163  C 31.7577509767442 7.1030951399573  24.6503806511628 0.00154889743589592  15.8843655503876 0.00154889743589592  C 7.11835044961242 0.00154889743589592  0.0109801240309935 7.10322421474359  0.0109801240309935 15.8622152649573  C 0.0109801240309935 21.2563649123931  2.70718210852715 26.0210185309829  6.82563324031008 28.8864709797009  C 6.84320142635659 28.8254187606838  6.86283649612403 28.7655282457265  6.88143810852711 28.7052504754273  C 6.89293494573644 28.6679479551282  6.90391506976744 28.6303873162393  6.91592862015506 28.5934720202991  C 6.95739472868217 28.4653010982906  7.00092772093024 28.3384209551282  7.04769013953489 28.2134768717949  C 7.05053206201552 28.2058614903846  7.05363231007755 28.1986333023505  7.05660341085269 28.1910179209401  C 7.10052390697672 28.0743346239316  7.14715714728681 27.9592002243589  7.1955988527132 27.8452275288462  C 7.21161693023254 27.8077959337606  7.22841004651161 27.7708806688034  7.24481565891472 27.7335781175213  C 7.33711299608024 27.5241212246729  7.43782440650097 27.3184677217657  7.54670452713179 27.1171186420941  C 7.56582285271315 27.0818813183761  7.58442449612403 27.0461276955128  7.60380114728684 27.0111485213675  C 7.6659325154983 26.8993040958756  7.73058099097665 26.7888743384  7.79769724031007 26.6799435181624  C 7.80712722480621 26.6645836495727  7.81746145736435 26.6498691858974  7.8270206511628 26.6345093173077  C 7.88540908527131 26.5413175694445  7.9454768372093 26.4494165694445  8.00722387596898 26.3589354230769  C 8.03422207751936 26.3191805128205  8.06225367441863 26.2805872446581  8.08989776744187 26.2413486025641  C 8.16672831898097 26.1324226765972  8.24615235423056 26.0253463929082  8.32810189147284 25.9202114017094  C 8.37524265112444 25.8600043856641  8.4232153200997 25.8004523433507  8.47200610852713 25.7415723931624  C 8.50559237209302 25.7009139594018  8.53866192248063 25.6598682702992  8.57302325581395 25.6198552104701  C 8.63322018604651 25.5495096378205  8.69522558139533 25.4807129626068  8.75774772093024 25.4124325865384  C 8.80799795348838 25.3574468824786  8.85928158139535 25.3033647019231  8.91108192248061 25.2497988205129  C 8.96494911627906 25.1937805181624  9.01894548837208 25.1380203653846  9.07462120930234 25.0835509294872  C 9.11970431007751 25.0391493269231  9.16607919379845 24.9960384722223  9.21219572093025 24.9526694679487  C 9.30640601693113 24.8640950240082  9.40262552974428 24.7776787413168  9.50077922480619 24.6934880096154  L 9.50220018604654 24.6921972617521  C 10.2644792248062 24.0393387895299  11.1489605891473 23.5138767596154  12.1318755348837 23.1362049572649  C 12.176312744186 23.1190380726496  12.220879131783 23.1018711570513  12.2658330542636 23.0853496463675  C 12.3425711142403 23.0572103975364  12.4196531366405 23.0300166521922  12.4970615813954 23.0037745982906  C 12.5451157829457 22.9875112061966  12.5935574883721 22.9720222938034  12.6419992248062 22.956404275641  C 12.7196351627907 22.9314929038461  12.7971419224806 22.906452457265  12.875940496124 22.8833481324787  C 12.9237363410853 22.8692790117522  12.9724364031008 22.8566297136753  13.0207489612403 22.843076923077  C 13.1580753592504 22.8049121134932  13.2961977388402 22.7696668372389  13.4350226046512 22.737364951923  C 13.4980614263566 22.722650457265  13.5609711007752 22.7074196944444  13.6245266666667 22.6937377980769  C 13.6933785116279 22.6790233034188  13.7630054263566 22.6658577061966  13.832503131783 22.652563065171  C 13.9028183958481 22.6388766468573  13.973266856248 22.6258825191862  14.0438382635659 22.6135825726495  C 14.191752623467 22.5881319986057  14.3402147150305 22.5659687517524  14.4891146046511 22.5471092435897  C 14.5460820775194 22.5396229369658  14.602920372093 22.5318784497863  14.660275379845 22.525424741453  C 14.8020091860343 22.509091750299  14.9440452540973 22.4954933822721  15.086304248062 22.484637232906  L 16.690048372093 22.484637232906  C 16.8374404031008 22.4956085587606  16.9831531162791 22.5100649038461  17.1279616124031 22.5265864145299  C 17.1690401860465 22.5312331068376  17.2097312558139 22.5367832916667  17.2506806511628 22.5419462831196  C 17.355378377738 22.5550703359904  17.4598929597133 22.5696140608172  17.564195503876 22.5855734369658  C 17.7136670333705 22.608918952226  17.8626408716472 22.6353418029705  18.0110220155039 22.6648251388889  C 18.0473210232558 22.6720532959401  18.0838783875969 22.6786361100427  18.1200481860465 22.6863805662393  C 18.3959389692229 22.7442178685085  18.6693008093123 22.8135047647327  18.939423875969 22.8940613397436  C 18.9727517829458 22.9040000673077  19.0055629767442 22.9147132435897  19.0386325271318 22.9250391955128  C 19.177304575414 22.9679532566304  19.3149995763938 23.0139582650163  19.4516144186047 23.0630197702991  C 19.5482395038759 23.0978698696581  19.6437020155039 23.1341397916667  19.7386477829457 23.1718295053419  C 20.6640785426357 23.5387881314102  21.4996014883721 24.0390806089744  22.2266149457365 24.6533458440171  L 22.2266149457365 24.6502480801282  C 22.2509004031008 24.6706418344017  22.274023255814 24.6921972617522  22.2980503565892 24.7129782403846  C 22.3983810111145 24.7996415471927  22.4966272810545 24.8886852319193  22.5927052403101 24.9800332297009  C 22.6246121860465 25.0103657115385  22.6569066666667 25.040311  22.6882968992248 25.0710307061966  C 22.7681251061417 25.1490949500135  22.8463795976649 25.2287498686208  22.9230132403101 25.3099474850427  C 22.936447751938 25.3240166057692  22.950140620155 25.3379566517094  22.9634459224806 25.3521548472222  C 23.0461636569055 25.4411525638933  23.1269615134945 25.5319127618385  23.205783751938 25.6243728279915  C 23.2358822015504 25.659481076923  23.2650764341086 25.6957509989317  23.2946581705426 25.7315045908119  C 23.3464585116279 25.7942347510684  23.3978713488372 25.8576103162393  23.447992372093 25.9218893739317  C 23.5282925606833 26.0249711888371  23.6060805286864 26.1299825610479  23.681287751938 26.2368309850427  C 23.7107403100775 26.2782638675213  23.7404512558139 26.3196967809829  23.769128744186 26.3617750373932  C 23.8224740018484 26.4404519838503  23.8744969437074 26.5200160146376  23.9251756899225 26.6004336666666  C 24.0082544757832 26.7312471880573  24.0877711408156 26.8642856879519  24.1636381705426 26.9994027467949  C 24.1912822635659 27.0488382660257  24.2176345426357 27.0991772777778  24.2443743875969 27.1492581709401  C 24.2779606511628 27.2122464807692  24.3112885581396 27.2756220459402  24.3435830387597 27.3396429540599  C 24.4016130703427 27.4551598487933  24.4569591200694 27.5720035078501  24.5095767131783 27.6900800384616  C 24.5359290232558 27.7488089113248  24.5624104806201 27.8074087094017  24.5876001860465 27.8669120309829  C 24.6134357829457 27.9282223995726  24.6377212403101 27.9904362606837  24.6621358449613 28.0525210470086  C 24.708252372093 28.1690752692308  24.7520436899225 28.2869202083333  24.7937681860465 28.4063140758547  C 24.8118530852713 28.4583310598291  24.8307130852713 28.5099608504273  24.8478937364341 28.5623650587606  C 24.8725667286822 28.6374863675213  24.8953020465116 28.7137693803419  24.9181665426357 28.7900523621795  C 24.9275965271318 28.821546517094  24.9380599379845 28.8523952980769  24.9472315658915 28.8841476335471  L 24.9460689612403 28.884922082265  C 29.0629699534884 26.0193405897436  31.7578801550388 21.2557195384616  31.7578801550388 15.8626024893163  Z M 27.059807627907 21.0942474145299  C 25.5905377364341 21.6910875844017  23.1586337984496 19.9369660405982  22.767224620155 17.9275352820513  C 21.6308462635659 20.6036355149573  18.9770146356589 22.4808940641026  15.8843655503876 22.4808940641026  C 12.7972711007752 22.4808940641026  10.1478315348837 20.6103473728632  9.0080945736434 17.9418625523505  C 8.60428434108525 19.939676642094  6.17703082170544 21.6748242542735  4.70892350387595 21.0832760886752  C 5.70888995348838 20.0983090897436  4.86768319379843 15.1805731773504  8.4141343875969 15.2205862681624  C 8.16378753488374 10.3077551976496  12.7250606511628 7.33039521901708  15.8843655503876 7.54594952350431  C 19.0511627906977 7.33039521901708  23.6231576744186 10.3077551666667  23.3693230077519 15.2205862681624  C 26.9005312248062 15.1853489444444  26.063716496124 20.1097967457265  27.059807627907 21.0942474145299  Z " fill-rule="nonzero" fill="#a0d9f6" stroke="none" transform="matrix(1 0 0 1 0 706 )" />
  </g>
</svg>