<?xml version="1.0" encoding="utf-8"?>
<svg version="1.1" xmlns:xlink="http://www.w3.org/1999/xlink" width="19px" height="10px" xmlns="http://www.w3.org/2000/svg">
  <g transform="matrix(1 0 0 1 -7 -729 )">
    <path d="M 17.1785855405406 3.63480792763153  C 17.1479669442568 3.59684809210523  17.1177494341216 3.55847713815785  17.0865960135135 3.52106549342102  C 17.1177494341216 3.55834013157892  17.1479669442568 3.59684812499995  17.1785855405406 3.63480792763153  Z M 17.6695529222973 4.30396983552635  C 17.6398702685811 4.25915805921056  17.6091179341216 4.21530552631577  17.5786330439189 4.17131601973688  C 17.6091179341216 4.21530555921049  17.6398702685811 4.25929513157894  17.6695529222973 4.30396983552635  Z M 16.5508371908784 2.93357884868419  C 16.5183467094595 2.90096355263154  16.484920285473 2.86930749999999  16.4518949797297 2.83696628289476  C 16.484920285473 2.86917046052633  16.5183467094595 2.90096355263154  16.5508371908784 2.93357884868419  Z M 16.8356303733108 3.23205003289468  C 16.8218586790541 3.21697572368419  16.807685866554 3.20217549342101  16.7937804983108 3.18723822368418  C 16.8076858986486 3.20217549342101  16.8218587111487 3.21697572368419  16.8356303733108 3.23205003289468  Z M 18.8877456891892 6.98253608552636  C 18.2213984377154 7.458370241745  17.5215348580268 7.88289417819999  16.7939142043919 8.25261444078944  C 17.5215647715136 7.88300252764816  18.2214327959079 7.45852170088074  18.8877456891892 6.98267312500002  Z M 16.072972972973 8.59438996710526  L 16.072972972973 2.490257368421  C 15.3204772027027 1.83808828947372  14.4556686452703 1.30692473684212  13.4978008800676 0.917322598684223  L 13.51103775 0.922667138157863  L 13.51103775 5.33080381578952  L 5.44590898817569 5.33080381578952  L 5.44590898817569 0.951719407894757  C 5.50514062162159 0.927052368421073  5.5647733733108 0.903070526315787  5.62467353716215 0.879362763157928  C 4.60730675844593 1.28033917763162  3.69169001858108 1.83822532894737  2.90282629054053 2.53150615131574  L 2.90282629054053 8.57588967105266  C 2.67628183656262 8.47447539036239  2.45200020190327 8.36783180332952  2.23015282601352 8.25604042763155  C 4.42412990878381 9.36920901315784  6.89487784121621 9.99602585526316  9.50882456925677 9.99602585526316  C 12.1233061216216 9.99602585526316  14.5944551722973 9.36893493421053  16.7888333733108 8.25521819078949  C 16.552902660778 8.37414534593688  16.3142134152351 8.48723534974215  16.072972972973 8.59438996710526  Z M 18.5167123412162 5.90170871710529  C 18.4907734256757 5.83867072368423  18.4633637753378 5.77631792763157  18.4359540929054 5.7139651315789  C 18.4632300692568 5.77631792763157  18.4906397195946 5.83853368421057  18.5167123412162 5.90170871710529  Z M 18.1615899527027 5.13990835526317  C 18.1339128581081 5.08673717105262  18.1066369138513 5.03329194078947  18.0780238766892 4.98080595394742  C 18.1066369138513 5.03329194078947  18.1339128581081 5.08673717105262  18.1615899527027 5.13990835526317  Z M 18.8589989780405 6.88181233552632  C 18.8353330658784 6.80082223684212  18.8118008597973 6.71983210526321  18.7862630625 6.64007536184215  C 18.8118008597973 6.71996914473687  18.8353330658784 6.80082223684212  18.8589989780405 6.88181233552632  Z M 1.16906428716214 4.59353345394732  C 1.15917006925673 4.60984111842106  1.14847361486488 4.62546355263157  1.13871307094593 4.64177121710532  C 1.14847358277029 4.62546355263157  1.15917003716214 4.60984111842106  1.16906428716214 4.59353345394732  Z M 1.44102171790541 4.17624940789472  C 1.41254238682433 4.21777226973688  1.38352826351354 4.25888398026314  1.3554500506757 4.3010920394737  C 1.38339455743244 4.25902101973679  1.41240868074323 4.21790930921054  1.44102171790541 4.17624940789472  Z M 0.938020788851361 4.99355059210529  C 0.917831234797291 5.03068819078942  0.898711297297325 5.06851098684206  0.878922861486501 5.10605970394738  C 0.898711297297325 5.06864802631583  0.917831234797291 5.03068819078942  0.938020788851361 4.99355059210529  Z M 10.9227625253378 0.248434769736832  C 10.8803778260135 0.243090230263192  10.8382605067567 0.237197565789529  10.7957421013514 0.232127105263203  C 10.8382605067567 0.237060526315759  10.8803778260135 0.243090230263192  10.9227625253378 0.248434769736832  Z M 7.38464186824325 0.36587726973687  C 7.31270818918921 0.380129342105306  7.24064080405407 0.393970296052657  7.16937568750001 0.409592730263171  C 7.24064083614866 0.393970263157939  7.3127082212838 0.379992269736817  7.38464186824325 0.36587726973687  Z M 8.24142809290538 0.231030789473721  C 8.18206275337838 0.237745690789438  8.12336594425676 0.246105098684211  8.0642680168919 0.254053355263181  C 8.12323223817566 0.246105098684211  8.18206275337838 0.237882730263209  8.24142809290538 0.231030789473721  Z M 2.60265697297297 2.80791401315787  C 2.5549240304054 2.85395914473679  2.50692367567569 2.8997301973684  2.46026038175677 2.9468716447368  C 2.50692367567569 2.8997301973684  2.5549240304054 2.85395914473679  2.60265697297297 2.80791401315787  Z M 1.94108108108111 3.51640615131578  C 1.90564906587838 3.55888825657894  1.87128669932434 3.60232967105264  1.83652321452701 3.64563401315786  C 1.87128669932434 3.6024667105263  1.90551535979728 3.55888825657894  1.94108108108111 3.51640615131578  Z M 6.39468477195948 0.611040197368425  C 6.31312428716217 0.635570197368452  6.2329008631757 0.662018750000016  6.15254370101354 0.688604342105236  C 6.23290083108105 0.662155789473672  6.31312425506758 0.635570197368452  6.39468477195948 0.611040197368425  Z M 0.371509695945917 6.24622499999998  C 0.368434456081104 6.25431029605261  0.365225542229723 6.26198450657898  0.362284008445954 6.27006980263161  C 0.365225542229723 6.26198450657898  0.368568162162148 6.25431029605261  0.371509695945917 6.24622499999998  Z M 12.773249616554 0.655303848684184  C 12.7390209560811 0.644340723684195  12.7050597077703 0.632966480263121  12.6705636351351 0.622414473684216  C 12.7050597077703 0.632966480263121  12.7390209560811 0.644340723684195  12.773249616554 0.655303848684184  Z M 11.8226019797297 0.401918552631628  C 11.7851643733108 0.39369621710523  11.7473256486487 0.38657016447371  11.7097543682432 0.379033026315824  C 11.7473256807432 0.386707203947367  11.7851644054054 0.39369621710523  11.8226019797297 0.401918552631628  Z M 13.2007068023648 0.801798651315835  L 13.0809064746622 0.758494276315787  C 13.1210182027027 0.772746348684223  13.1609961925676 0.787272499999972  13.2007068023648 0.801798651315835  Z M 0.225904158783806 6.67364996710523  C 0.213469525337814 6.71270611842101  0.202104540540518 6.75258447368424  0.19020473141893 6.79232582236841  C 0.202104540540518 6.75272151315789  0.213469525337814 6.71284315789478  0.225904158783806 6.67364996710523  Z M 0.566318910473001 5.76055842105268  C 0.549338270270255 5.8001627302632  0.531956543918909 5.83935588815791  0.515377021959466 5.8790972697368  C 0.531956543918909 5.83935592105263  0.549338270270255 5.80016276315791  0.566318910473001 5.76055842105268  Z " fill-rule="nonzero" fill="#f4b3b3" stroke="none" transform="matrix(1 0 0 1 7 729 )" />
  </g>
</svg>