<?xml version="1.0" encoding="utf-8"?>
<svg version="1.1" xmlns:xlink="http://www.w3.org/1999/xlink" width="19px" height="8px" xmlns="http://www.w3.org/2000/svg">
  <g transform="matrix(1 0 0 1 -7 -729 )">
    <path d="M 5.44577528209459 4.9108010909091  L 13.5109040439189 4.9108010909091  L 13.5109040439189 0.849972151515203  L 13.4976671739865 0.845048696969684  C 13.3598854337084 0.793323226964048  13.2208852660211 0.744539289588715  13.0807727685811 0.698734121212169  C 12.978772294046 0.665476878008917  12.8762064829522 0.633785941440806  12.773115910473 0.603673848484846  C 12.73888725 0.593574484848432  12.7049260016892 0.5830963939394  12.670429929054 0.573375757575718  C 12.3908432298353 0.494571951928265  12.1078992104164 0.42680529923166  11.8223345675676 0.370252242424272  C 11.7850306672297 0.36267772727274  11.7470582364865 0.356239363636405  11.7094869560811 0.349169818181849  C 11.5559532928428 0.320091442544367  11.4017523113144 0.294247480173453  11.2469988733108 0.271657181818227  C 11.1390417891948 0.256039392643402  11.0308637760702 0.241814792751597  10.9224951131757 0.228987363636406  C 10.8801104138514 0.224063909090887  10.8379930945946 0.21850927272726  10.7954746891892 0.213964545454587  C 10.6446871403812 0.197480203284385  10.4935703748178 0.183801328825098  10.3422122939189 0.172935878787825  L 8.6822558547297 0.172935878787825  C 8.53384252195946 0.183413969696971  8.38703363006755 0.19717436363635  8.24129438682434 0.21282836363639  C 8.18192904729727 0.219140454545482  8.12309853209462 0.226715000000013  8.0641343108108 0.234037030303057  C 7.91001537945095 0.252482693459001  7.75634959126586 0.274159599472227  7.6032507331081 0.299051696969741  C 7.52984628716217 0.311044696969702  7.45711037162164 0.323795151515128  7.38450816216215 0.337176818181774  C 7.31257448310811 0.350306000000046  7.24037339189192 0.363056454545472  7.16924198141891 0.377448030303071  C 7.1033250760135 0.390703454545474  7.03834408108111 0.405726242424294  6.97309567398651 0.420117848484892  C 6.82940883291661 0.451726115102247  6.68644551079728 0.48619790201019  6.54430145945946 0.523510121212098  C 6.49429551351352 0.536639303030256  6.44402218750003 0.549011030303063  6.39441735979727 0.562897636363687  C 6.31299058108107 0.585621212121168  6.2326334510135 0.609985939393937  6.15227628885134 0.634350666666705  C 6.1021366368243 0.649625969697013  6.0519970168919 0.664774999999963  6.00225848310811 0.680681515151491  C 5.92190135304054 0.706434909090945  5.84207904729732 0.733071969696994  5.76292523986484 0.760466515151506  C 5.71639565202702 0.776625515151522  5.67040088851354 0.793415696969646  5.62427241891891 0.810205878787883  C 5.56423854898651 0.83204575757577  5.5046057972973 0.854264363636389  5.44550786993244 0.87686169696974  L 5.44550786993244 4.9108010909091  Z M 9.01986277414539 1.7760209090909  C 9.01986277414539 1.52110862338475  9.23870775229142 1.31445161508793  9.50869086317567 1.31441675757571  C 9.77876693699136 1.31441675326005  9.99765265828705 1.52108397336701  9.99765265828705 1.7760209090909  C 9.99765265828705 2.03093319479706  9.77880768014103 2.23759020309399  9.50882456925677 2.23762506060609  C 9.23874849544109 2.23762506492176  9.01986277414539 2.03095784481479  9.01986277414539 1.7760209090909  Z M 9.50869086317567 2.98914418181823  C 9.77873700334118 2.98914418181823  9.99765265371622 3.19583966032224  9.99765265371622 3.45081145454549  C 9.99765265371622 3.70578324876874  9.77873700334118 3.91247872727274  9.50869086317567 3.91247872727274  C 9.23864472301017 3.91247872727274  9.01972907263513 3.70578324876874  9.01972907263513 3.45081145454549  C 9.01972907263513 3.19583966032224  9.23864472301017 2.98914418181823  9.50869086317567 2.98914418181823  Z M 2.90269258445943 7.90008727272732  L 2.90269258445949 2.33205415151519  L 2.90122181756755 2.33319033333339  C 2.84840804391894 2.37598639393934  2.79626283277025 2.41941366666663  2.74465244594597 2.4630934242424  C 2.69665209121621 2.50374336363632  2.64958767905404 2.54515078787881  2.60252326689186 2.58668442424243  C 2.5547903243243 2.62910175757577  2.50678996959459 2.67126660606061  2.46012667567567 2.7146938787879  C 2.40263322128379 2.767968030303  2.34674423986485 2.82250460606065  2.29085522635137 2.87729369696967  C 2.17056284067394 2.99474187569615  2.05387850266271 3.11543727002697  1.94094737500001 3.23922972727269  C 1.90538165371623 3.27849100000003  1.87115299324324 3.31850975757573  1.83638950844596 3.35827600000005  C 1.75060300285935 3.45587154522138  1.66745580120693 3.55550867532372  1.58702834121624 3.65709100000004  C 1.53728980743244 3.71970706060608  1.48875462837839 3.78308060606059  1.44088801182431 3.84708533333333  C 1.41227497466218 3.88546293939396  1.38326085135134 3.92333554545451  1.3553163445946 3.96209187878787  C 1.29133468694891 4.05080679698733  1.22915023072449 4.14066539814553  1.168796875 4.23161869696969  C 1.15890265709459 4.24651527272727  1.14833990878378 4.26090684848486  1.13844565878378 4.27605590909093  C 1.06900586242079 4.38261278584764  1.00209179619901 4.4906187032135  0.937753376689216 4.59999309090915  C 0.917563822635145 4.63420469696973  0.898443885135123 4.66917375757578  0.878655481418946 4.70363784848485  C 0.765824821441527 4.9005033769738  0.661580712434841 5.10164930843382  0.5661852043919 5.30656999999997  C 0.54920456418921 5.34305396969694  0.531689131756764 5.37915918181818  0.515243315878365 5.4157694242424  C 0.464769399325576 5.52753404104237  0.416802913394804 5.64029339116223  0.371375989864873 5.75397193939398  C 0.368434456081104 5.76142021212127  0.365091836148622 5.76848978787882  0.362150302364853 5.77593806060611  C 0.313752508424443 5.89884511919888  0.268281118885341 6.02276185971868  0.225770452702704 6.1475947575758  C 0.21333581925677 6.18370000000004  0.201970834459473 6.22043642424239  0.190071025337829 6.25692039393937  C 0.170683707770252 6.31600169696969  0.150494121621648 6.37457800000004  0.13231015878381 6.43416427272723  L 0.171084826013498 6.45953890909095  C 0.48823478378381 6.66644966666672  0.812872249999998 6.86351357575757  1.14553208108106 7.04946815151516  L 1.16639016554052 7.06108242424239  C 1.51375211895891 7.25477310568431  1.86853443605128 7.4363475433214  2.23001911993242 7.60543827272727  C 2.45186649582212 7.70842184306707  2.67614813048164 7.80666320809144  2.90269258445943 7.90008727272732  Z M 18.8878793952703 6.43189190909095  C 18.8881468074324 6.43214439393944  18.8885479256757 6.43189190909095  18.8889490439189 6.43163942424246  C 18.8795896503378 6.40058387878787  18.8687594898649 6.37041203030299  18.8588652719595 6.33960893939388  C 18.8351993597973 6.26499987878788  18.8116671537162 6.190517030303  18.7861293564189 6.11691790909094  C 18.7683465118243 6.06566363636364  18.7488254560811 6.0151667878788  18.7301066689189 5.96429124242422  C 18.6873502395259 5.84803022846666  18.6419241439631 5.73265983495537  18.5938605253378 5.61826169696974  C 18.5685901402027 5.55766548484849  18.5434534611487 5.49669057575761  18.5167123412162 5.43672560606058  C 18.4906397195946 5.37852799999996  18.4632300692568 5.32121409090905  18.4359540929054 5.2637739393939  C 18.3814922176056 5.14828842983047  18.32420625144 5.03400873821374  18.2641422280406 4.92102669696965  C 18.2306322205134 4.85860672814692  18.1964015205414 4.79653400959069  18.1614562466216 4.73481963636368  C 18.133779152027 4.68583769696966  18.1065032077703 4.63660330303026  18.0778901706081 4.58825257575757  C 17.9993187407206 4.45612518726534  17.9170156841444 4.32600716783099  17.8310694189189 4.19803830303033  C 17.7785835893754 4.11940394430758  17.7247375392519 4.04158632114809  17.6695529222973 3.96461672727276  C 17.6398702685811 3.92346181818186  17.6091179341216 3.88306433333332  17.5786330439189 3.84241439393941  C 17.5007897571051 3.73791059599296  17.420275268261 3.63520353845638  17.3371605033784 3.53438369696971  C 17.2851874874071 3.47161322317857  17.2322793352383 3.40953802864419  17.1784518344595 3.34817663636363  C 17.1478332381757 3.31320757575759  17.1177494341216 3.27773354545457  17.0864623074324 3.24339572727274  C 17.0049108173656 3.15293701928238  16.9212803026523 3.06416774652655  16.8356303733108 2.97715118181816  L 16.7937804983108 2.93587000000002  C 16.7143926523435 2.85651607799298  16.6333965886452 2.77861032396345  16.5508371908784 2.70219590909096  C 16.5183467094595 2.67215030303032  16.484920285473 2.64286212121215  16.4518949797297 2.61319524242424  C 16.3524431837943 2.52385808727433  16.2507534775294 2.43676847778909  16.1469122432433 2.35200039393942  C 16.1220429763513 2.33167542424246  16.098109652027 2.31059300000004  16.072972972973 2.29064675757581  L 16.072972972973 7.91687748484844  C 16.3159921535201 7.8174041489541  16.5564211194252 7.71238195338378  16.794047910473 7.60190348484844  C 17.5216685641078 7.26131269749328  18.2215321437965 6.87023610148628  18.8878793952703 6.43189190909095  Z " fill-rule="nonzero" fill="#fefefe" stroke="none" transform="matrix(1 0 0 1 7 729 )" />
  </g>
</svg>