<?xml version="1.0" encoding="utf-8"?>
<svg version="1.1" xmlns:xlink="http://www.w3.org/1999/xlink" width="32px" height="29px" xmlns="http://www.w3.org/2000/svg">
  <g transform="matrix(1 0 0 1 0 -968 )">
    <path d="M 31.9996094375 15.8616989348291  C 31.99947925 7.0986795181625  24.836479625 0.000516330128220943  16.00156228125 0.000516299145374433  C 7.16677515625003 0.000516299145374433  0.00364534375000858 7.0986795181625  0.00364534375000858 15.8616989348291  C 0.00364534375000858 21.2569276858974  2.72178100000002 26.0209619252137  6.87371437500002 28.8852168226497  C 7.68767090624999 26.0749167970087  9.75198543750003 23.9640938899572  12.55891159375 23.0103318514957  C 12.63442259375 22.9846451944445  12.71071475 22.9601202724359  12.78713709375 22.9361116495727  C 12.8402551875 22.9195895811965  12.8929826875 22.9024221388888  12.94662153125 22.8866745192308  C 13.0921032867244 22.8436689238233  13.2385639625385 22.8039882582846  13.38588725 22.7676640341881  C 13.5053437876956 22.7381366812438  13.6253117678608 22.7106817570082  13.74573621875 22.6853118418803  C 13.79234471875 22.6756309540599  13.83973440625 22.6667245149572  13.8866033125 22.657559957265  C 14.0318640774884 22.6290277592818  14.1777102459576 22.6035076435942  14.32404634375 22.5810163162394  C 14.4236115497516 22.5657877996159  14.5233917982986 22.5519749656412  14.62335634375 22.5395820705128  C 14.6684025625 22.5337735192309  14.71318840625 22.5275777435897  14.7586251875 22.5225437029915  C 14.9044927184298 22.5056885245981  15.0506829650664 22.491702251066  15.19710975 22.4805931271367  L 16.81343575 22.4805931271367  C 16.96120296875 22.4915648247863  17.1071475 22.5060216036325  17.25231090625 22.5225437029915  C 17.29683634375 22.5275777745726  17.34097125 22.5336444754273  17.3852363125 22.5391948461538  C 17.5354712247732 22.5580642176078  17.6853083686618 22.5799259483965  17.8346569375 22.60476678953  C 17.9350345 22.6216760822649  18.03437053125 22.6400052596155  18.13331596875 22.6594961410256  C 18.17549796875 22.6677571752136  18.2178101875 22.6756309850427  18.259862 22.6842792126067  C 18.5341190568254 22.7416481131756  18.8058838970868 22.8101605554443  19.07446946875 22.889643332265  C 19.1150891875 22.901647659188  19.15492775 22.9145555096154  19.195156875 22.9270761356838  C 19.28798334375 22.9558606805556  19.380028625 22.9854196741453  19.47116259375 23.016656701923  C 22.2670225 23.9730002980768  24.32274440625 26.079176388889  25.135789625 28.8809572307691  C 29.28407759375 26.0163151089744  31.9996094375 21.2540879476496  31.9996094375 15.8616989348291  Z M 23.52766565625 15.2458647564104  C 23.4012498125 19.2603393728632  20.08136959375 22.4768498653846  16.00156228125 22.4768498653846  C 11.84168725 22.4768498653846  8.46947009374998 19.1334550779914  8.46947012499999 15.009134534188  C 8.46947012499999 14.9698946217948  8.47181356250002 14.93117103953  8.47246453125001 14.8921893076922  C 8.43145425 10.1712673173076  12.894805375 7.3305047435897  16.00898321875 7.54141923397447  L 16.0126285625 7.54141923397447  C 19.20492121875 7.32559974679498  23.821507625 10.3075743814102  23.55214165625 15.2323115010684  C 23.54419996875 15.2372164978633  23.53560734375 15.2409597596154  23.52766565625 15.2458647564104  Z " fill-rule="nonzero" fill="#d6e079" stroke="none" transform="matrix(1 0 0 1 0 968 )" />
  </g>
</svg>