<?xml version="1.0" encoding="utf-8"?>
<svg version="1.1" xmlns:xlink="http://www.w3.org/1999/xlink" width="6px" height="4px" xmlns="http://www.w3.org/2000/svg">
  <g transform="matrix(1 0 0 1 -14 -991 )">
    <path d="M 4.05429547826088 0.266855142857139  C 4.00797 0.260457178571414  3.96191621739132 0.253464035714387  3.91559070652175 0.247661214285699  C 3.96205203260871 0.253464035714387  4.00810584782607 0.260457178571414  4.05429547826088 0.266855142857139  Z M 0.403548000000001 0.403444499999978  C 0.354641315217407 0.414008607142932  0.305191239130409 0.424275107142876  0.256556282608699 0.435434357142867  C 0.305191239130409 0.424275107142876  0.354641347826089 0.414008571428667  0.403548000000001 0.403444499999978  Z M 5.94277239130435 0.713969535714341  C 5.90079417391303 0.699536892857168  5.85908761956523 0.684657892857103  5.81683770652171 0.670820392857195  C 5.85922349999998 0.684657892857103  5.90079417391303 0.699536892857168  5.94277239130435 0.713969535714341  Z M 1.31348386956523 0.247661214285699  C 1.26607157608697 0.253464035714387  1.21933852173913 0.260605964285787  1.17233377173915 0.267301500000031  C 1.21933852173913 0.260605928571522  1.26607157608697 0.253463999999894  1.31348386956523 0.247661214285699  Z M 4.96681252173914 0.434095249999928  C 4.92306821739129 0.424126321428503  4.87878052173915 0.415050107142861  4.83476448913041 0.405527571428593  C 4.87878048913046 0.415050142857126  4.92293236956522 0.424126357142768  4.96681252173914 0.434095249999928  Z M 2.70678071739133 3.70569307142864  C 2.67471968478259 3.70658582142846  2.64265861956522 3.70837128571429  2.61032585869566 3.70837132142856  C 2.57785725000002 3.70837132142856  2.54579621739128 3.70643703571432  2.51359933695653 3.70569307142864  L 2.61032585869566 3.77993935714289  L 2.70678071739133 3.70569307142864  Z " fill-rule="nonzero" fill="#a0d9f6" stroke="none" transform="matrix(1 0 0 1 14 991 )" />
  </g>
</svg>