<?xml version="1.0" encoding="utf-8"?>
<svg version="1.1" xmlns:xlink="http://www.w3.org/1999/xlink" width="19px" height="9px" xmlns="http://www.w3.org/2000/svg">
  <g transform="matrix(1 0 0 1 -7 -991 )">
    <path d="M 18.8825691199324 6.1300611874999  C 18.0475497381757 3.30399687499994  15.9362677804054 1.17966409375003  13.0649777989865 0.215076156250007  C 13.0911849611487 0.223798968750089  13.1173921554054 0.233042562500032  13.1434656114865 0.242025781250049  C 13.0561802449058 0.482747426540755  12.9437187344921 0.714097681861631  12.8078533665541 0.932430687500073  C 13.3626164256757 1.7517250625001  13.2246276418919 5.3584168750001  12.3934858648649 4.78922015624994  L 10.9456732516892 3.80015621875009  L 9.50160450506758 2.80744693749989  L 8.05379192398647 3.80015621875009  L 6.60972317736486 4.78922015624994  C 5.77858140033783 5.3584168750001  5.64059261655405 1.75172503125009  6.19535567567567 0.932560875000036  C 6.06011504515646 0.715010552581589  5.94802057374403 0.484594122834551  5.86081311148649 0.244889999999941  C 5.89584516385133 0.232782187500106  5.93074347804054 0.220414031249902  5.96590920439189 0.208826968749918  C 3.08298644087836 1.17081109374999  0.963013331081072 3.29970056249999  0.127058006756783 6.13435750000008  C 2.78588270270268 7.93581565625004  6.01685276182434 8.99270928124997  9.50160450506758 8.99270928124997  C 12.9891642043919 8.99270928124997  16.2225410371622 7.93412315625005  18.8825691199324 6.1300611874999  Z M 6.36423149493243 0.0839734374999352  C 6.3091429527027 0.0998567812500823  6.25485664695947 0.117172250000067  6.20043666722972 0.13383675  C 6.25499038513516 0.117042062500104  6.3091429527027 0.0998568125000929  6.36423149493243 0.0839734374999352  Z " fill-rule="nonzero" fill="#a0d9f6" stroke="none" transform="matrix(1 0 0 1 7 991 )" />
  </g>
</svg>