<?xml version="1.0" encoding="utf-8"?>
<svg version="1.1" xmlns:xlink="http://www.w3.org/1999/xlink" width="8px" height="3px" xmlns="http://www.w3.org/2000/svg">
  <g transform="matrix(1 0 0 1 -12 -991 )">
    <path d="M 0.220492133333323 0.687470596153844  C 0.310920111040559 0.908826101393288  0.427347689381691 1.12157061453149  0.567946866666659 1.32236388461547  C 0.682931899999971 1.17154217307689  0.826107700000023 1.12238991346157  0.99830750000001 1.22718395192305  L 2.49811223333336 2.14016604807694  L 3.90292929999998 2.99317996153854  C 3.93584166666665 2.99378085576927  3.96861519999999 2.99534313461527  4.00180533333332 2.99534316346148  C 4.03485660000001 2.99534316346148  4.06763009999997 2.99390105769226  4.10040359999999 2.99317996153854  L 5.50161003333335 2.14016604807694  L 7.00530313333331 1.22718395192305  C 7.17736406666666 1.12238991346157  7.32067873333335 1.17154214423067  7.43566376666666 1.32224371153848  C 7.57679903714103 1.12071763803192  7.69360247360686 0.9071611881634  7.78422949999998 0.684946874999923  C 7.75714970000001 0.676654673076882  7.72993100000002 0.66812215384607  7.70271233333335 0.660070298077017  C 7.60550276666669 0.630987548076973  7.50732110000001 0.603346903846159  7.40830620000003 0.576667701923043  C 7.36539513333332 0.565010567307581  7.32290066666667 0.552992913461594  7.27957296666665 0.541816471153879  C 6.99306381647256 0.467871268306453  6.70318398470323 0.404084408370863  6.41065833333334 0.350615394230772  C 6.36594193333332 0.342563567307707  6.32080893333335 0.335232778846148  6.27567590000001 0.327541500000052  C 6.17013409999998 0.309514990384514  6.06417566666664 0.292329749999908  5.95710626666664 0.276586586538542  C 5.79781850638511 0.253363487405977  5.63798996153588 0.233009174625977  5.47772426666666 0.215536846153782  C 5.43050820000002 0.210369259615391  5.38343099999997 0.204720951923036  5.33593716666667 0.200034057692392  C 5.180205970629 0.184341353353147  5.02413085819319 0.171319655057914  4.86780366666665 0.160976625000103  L 3.14372259999999 0.160976625000103  C 2.98753460536079 0.171325363812912  2.8315984740068 0.184347055756689  2.67600573333334 0.200034057692392  C 2.62767869999999 0.204720951923036  2.57990713333334 0.210489432692384  2.53171896666669 0.215897365384535  C 2.37085252356621 0.233457345835632  2.21042249914882 0.25389173535018  2.0505316 0.277187451923055  C 1.94872975926933 0.292217417828397  1.84716017332033 0.308402608870892  1.74584906666666 0.325738846153854  C 1.69585556666669 0.334271394230882  1.64530660000003 0.342563567307707  1.59559086666667 0.351576807692254  C 1.46644099999997 0.37525159615393  1.33854100000002 0.400849240384559  1.21175193333335 0.428249538461614  C 1.17870066666666 0.435460124999963  1.14564943333335 0.442670740384528  1.11273706666668 0.450121673076865  C 0.988958906809728 0.477866220995338  0.865760996962649 0.507514490398762  0.74320183333333 0.539052403846199  C 0.685987066666655 0.5537139519231  0.629744399999993 0.56957728846146  0.573085100000014 0.585080076923077  C 0.491640128988422 0.607319820099974  0.410488105616082 0.630355145928661  0.329644566666673 0.654181644230675  C 0.293121533333306 0.664997538461648  0.256876266666666 0.676414326923123  0.220492133333323 0.687470596153844  Z " fill-rule="nonzero" fill="#fefefe" stroke="none" transform="matrix(1 0 0 1 12 991 )" />
  </g>
</svg>