<?xml version="1.0" encoding="utf-8"?>
<svg version="1.1" xmlns:xlink="http://www.w3.org/1999/xlink" width="8px" height="4px" xmlns="http://www.w3.org/2000/svg">
  <g transform="matrix(1 0 0 1 -12 -992 )">
    <path d="M 7.43552490000002 0.17182200000002  C 7.32067873333335 0.0180430000000342  7.17722520000001 -0.0320730294117766  7.00516426666667 0.0747757941176133  L 5.50147116666665 1.00565950000009  L 4.10026473333335 1.87539917647064  L 4.00166643333336 1.93654317647065  L 5.50147116666665 2.87085779411768  L 7.00516426666667 3.80174149999993  C 7.86838519999998 4.33745605882359  8.01169986666667 0.942922558823511  7.43552490000002 0.17182200000002  Z M 3.90279043333334 1.87527664705885  L 2.49797336666666 1.00565950000009  L 0.998168633333307 0.0747757941176133  C 0.826107700000023 -0.0320730294117766  0.682793033333326 0.0180429705883398  0.567808000000014 0.17182200000002  C -0.00836696666664238 0.942800029411728  0.134947699999998 4.33733352941181  0.998168633333307 3.80161897058815  L 2.49797336666666 2.8707352647059  L 4.00166643333336 1.93642064705887  L 3.90279043333334 1.87527664705885  Z " fill-rule="nonzero" fill="#fa9689" stroke="none" transform="matrix(1 0 0 1 12 992 )" />
  </g>
</svg>