<?xml version="1.0" encoding="utf-8"?>
<svg version="1.1" xmlns:xlink="http://www.w3.org/1999/xlink" width="43px" height="38px" xmlns="http://www.w3.org/2000/svg">
  <g transform="matrix(1 0 0 1 0 -20 )">
    <path d="M 42.1037697714013 20.8073225520833  C 42.1041122060755 9.3165776455543  32.6835480593002 0.000338642485107954  21.0641273979388 0.000338642485118612  C 9.44487795391456 0.000338642485118612  0.0241425487034574 9.31674696679688  0.0241425487034574 20.8073225520833  C 0.0241425487034574 27.8847111002604  3.59878256229222 34.1361192910156  9.0591106622756 37.8948548923921  C 10.1273761518035 34.2157033232887  12.8339113462018 31.4478732287016  16.5152237884807 30.1924779020647  C 16.6319269242664 30.1528621071362  16.7491689883313 30.1148163065662  16.866917514877 30.0783510357143  C 16.9230789385805 30.060910297433  16.9785554518368 30.0429615547805  17.0350593513132 30.0261981421131  C 17.2094273620632 29.974377316956  17.3848547319159 29.9261087123236  17.561230161112 29.8814229521949  L 17.5716748296626 29.8790523735119  C 17.7477043001345 29.8351570203661  17.9246148079321 29.7947923141855  18.1022974957197 29.7579830923549  C 18.1591437887716 29.7461301582961  18.2165037749335 29.7354625135789  18.2735213264212 29.7242869051339  C 18.4667711487225 29.6862129657604  18.6608108368215 29.6521705383463  18.8555111663481 29.6221822940848  C 18.98788459444 29.6019910148702  19.1205391545639 29.5836453681525  19.2534353410073 29.5671508174293  C 19.3119938896277 29.559869719494  19.3702100035738 29.551742015346  19.4291109868683 29.5451382430245  C 19.6210651484491 29.5230192804353  19.8134445105567 29.5046718250283  20.0061353185256 29.4901067257254  L 20.768081402136 29.4901067257254  C 20.8458170322889 29.494678561849  20.923381404006 29.494678561849  21.0011170341589 29.4901067257254  L 21.0641273979388 29.4901067257254  C 15.5931834120678 29.4901067257254  11.1581436471493 25.1041814654018  11.1581436471493 19.6938237916667  C 11.1581436471493 19.6423481830357  11.1612256825133 19.5915499000186  11.1620818102975 19.5404129338728  C 11.1081462941739 13.3472534453125  16.9782130171626 9.61611830385044  21.0738871560422 9.89263037899925  C 25.2770898513963 9.60951453152901  31.3488582829538 13.5260635055803  30.994424914769 19.9865913563988  C 30.9839802462184 19.9930258074777  30.9726794909824 19.9979363267299  30.9622348635306 20.0042014159226  C 30.7959765 25.270630546596  26.4295975175781 29.4901067257254  21.0639561806017 29.4901067257254  L 22.1317080181184 29.4901067257254  C 22.3258758350648 29.5044995597098  22.5178177855303 29.5234642704613  22.7085610913398 29.5451382430245  C 22.7676333330702 29.551742015346  22.8260206232547 29.5598697601376  22.8845792129737 29.5671508174293  C 23.0824551754254 29.5919836063776  23.2798025287138 29.6207752132318  23.4764999872424 29.6535079432664  C 23.6061164432763 29.675181875186  23.734534295753 29.6988877433036  23.8622673199801 29.7239482220052  C 23.9203122165891 29.7352931923363  23.9788707652095 29.7461301582961  24.0364019276097 29.7581524135975  C 24.2096491388696 29.7941253486804  24.3821621566189 29.833473470893  24.5538403655253 29.8761738311012  C 24.5653123791971 29.8790524141555  24.5771268275432 29.8817616353236  24.5885988001164 29.8848095396205  C 24.7597944433949 29.9282416990279  24.9300829408337 29.9750986278035  25.0993595152926 30.0253514952567  C 25.1598015368185 30.0431309166667  25.219044995886 30.0624342699033  25.2788021069648 30.0808909762835  C 25.3919810821559 30.1161111359747  25.5044751058012 30.1523472637649  25.616113042761 30.1902766446242  C 29.2987952648354 31.4441480394345  32.0068714563664 34.2107928040365  33.0770204187999 37.889267047526  C 38.5325542278507 34.1298541611793  42.1037697714013 27.8813245534784  42.1037697714013 20.8073225520833  Z " fill-rule="nonzero" fill="#a6d4ae" stroke="none" transform="matrix(1 0 0 1 0 20 )" />
  </g>
</svg>