<?xml version="1.0" encoding="utf-8"?>
<svg version="1.1" xmlns:xlink="http://www.w3.org/1999/xlink" width="26px" height="13px" xmlns="http://www.w3.org/2000/svg">
  <g transform="matrix(1 0 0 1 -8 -49 )">
    <path d="M 25.2145582885045 9.17189353111048  C 24.1287579754464 5.3967911109096  21.3800218179408 2.55733986342075  17.6422828849051 1.27047189467076  C 17.6805152991071 1.28367945214844  17.7184001174665 1.29740838253348  17.7562849775391 1.31078971707589  C 17.6429308494299 1.63247807686938  17.4968836421199 1.94169286598886  17.3204355807757 2.2335809281529  C 18.039726132115 3.33137231752232  17.8598600708705 8.1385758938337  16.7804897177734 7.37931507421875  L 14.8987602479074 6.05908061593192  L 13.0218967444196 4.73884615764509  L 13.1451093551897 4.65195432993862  C 13.1040964245257 4.65299703404018  13.0632572709263 4.65508244224331  13.0218967444196 4.65508244224331  C 12.9787984055524 4.65508244224331  12.9363951749442 4.65282325697545  12.8936443902065 4.65178055287389  L 13.0168570009766 4.73884615764509  L 11.1399934974888 6.05908061593192  L 9.25826402762277 7.37931507421875  C 8.18167427441406 8.13944482087054  7.99989654031808 3.32059772237724  8.72109872279576 2.22975770758929  C 8.54617883895214 1.93987834175417  8.40119250116074 1.63296145076051  8.28837743833705 1.31374401060268  C 8.32713118373326 1.2998413031529  8.36588497084263 1.28593863741629  8.4048124515904 1.27255730287389  C 4.66846377678571 2.56098934863281  1.92146547335379 5.40183085435268  0.837229237304683 9.17762842452566  C 4.29309109277343 11.5833156417411  8.49239942926897 12.9949602982701  13.0217229673549 12.9949602565569  C 17.5546959489397 12.9949602565569  21.7573061748047 11.58105641476  25.2145582885045 9.17189353111048  Z M 11.3624365664062 0.608356166713172  C 11.3026550036272 0.615133722516738  11.2437423261719 0.623475355329234  11.1841345404576 0.630948019391738  C 11.2435685491071 0.623475313616069  11.3026550036272 0.615133722516738  11.3624365664062 0.608356166713172  Z M 10.189570648577 0.792219267299103  C 10.1317006752232 0.803688970703121  10.07348314774 0.814637342912945  10.0157869931641 0.826802196289059  C 10.07348314774 0.814637342912945  10.1317006752232 0.803688970703128  10.189570648577 0.792219267299103  Z M 9.47723143010603 0.950883734095989  C 9.47375576367187 0.951926438197546  9.47010632017299 0.952621588169642  9.46663061202567 0.953316696428573  L 9.47723143010603 0.950883734095989  Z M 16.038954867885 0.82697597335379  C 15.9805635633371 0.814637342912945  15.9211295546875 0.80351519363839  15.8622168772321 0.79187167145647  C 15.9211295546875 0.80351519363839  15.9805635633371 0.814637342912945  16.038954867885 0.82697597335379  Z M 17.3001028716518 1.15820765611049  C 17.2394523818359 1.1392652469308  17.1791494461496 1.11945391071429  17.1179775834263 1.10120660979353  C 17.1793232232143 1.11945391071429  17.2394523818359 1.1392652469308  17.3001028716518 1.15820765611049  Z M 16.5994071753627 0.956966181640631  C 16.5877636531808 0.953838069335937  16.5759463956473 0.951057552873884  16.5641290964007 0.948103217633928  C 16.5757726185826 0.951057552873884  16.587763694894 0.953838069335937  16.5994071753627 0.956966181640631  Z M 8.93259346121652 1.10207553683036  C 8.87541863783482 1.11928013364955  8.81893896442522 1.13770116992188  8.76193787639509 1.155600875  C 8.81893892271205 1.13770116992188  8.87524481905692 1.11928009193638  8.93259346121652 1.10207553683036  Z M 14.8699121706194 0.630948019391738  C 14.8104781619699 0.623475313616069  14.751217930385 0.615133722516738  14.6912625905413 0.608356166713172  C 14.7512179720982 0.615133722516738  14.8104781619699 0.623475355329234  14.8699121706194 0.630948019391738  Z " fill-rule="nonzero" fill="#f08e83" stroke="none" transform="matrix(1 0 0 1 8 49 )" />
  </g>
</svg>