<?xml version="1.0" encoding="utf-8"?>
<svg version="1.1" xmlns:xlink="http://www.w3.org/1999/xlink" width="11px" height="5px" xmlns="http://www.w3.org/2000/svg">
  <g transform="matrix(1 0 0 1 -16 -49 )">
    <path d="M 0.849125954101559 1.1791569889323  C 0.960397879217886 1.46559409038667  1.10347007808246 1.74098418976374  1.27612798063151 2.001064609375  C 1.41766138557943 1.80642692220052  1.59419217675782 1.74326324707031  1.80640655078125 1.8789481608073  L 3.66401128385417 3.06377395670573  L 5.39500792366537 4.17483080891927  C 5.43721062141927 4.17576656901042  5.4790701796875 4.17779404296875  5.52161601692708 4.17779404296875  C 5.56244628027344 4.17779404296875  5.60276185498047 4.17592252278646  5.64324897884115 4.17498676269532  L 7.37441716780599 3.06377395670573  L 9.23202190087891 1.8789481608073  C 9.44526561100261 1.74248344075521  9.62282569710287 1.80705073730469  9.76504538102214 2.0044957047526  C 9.93926324743895 1.74256047104631  10.0834396420808 1.46505696387525  10.1953069650065 1.17634974609375  C 10.1577362591146 1.16434085611979  10.1203371435547 1.15202002115885  10.0827664376628 1.14016708496094  C 9.97060614480408 1.10522781176693  9.85794136954252 1.07164154259956  9.74480179850261 1.03941712727865  C 9.68492887906901 1.02241752929687  9.62557060709636 1.00463812500001  9.5650114498698 0.988262342122397  C 9.39540044808304 0.941996883145478  9.22478239505164 0.898839298694007  9.05326092952475 0.85881580403646  C 9.04176668326824 0.856008523763023  9.02992933870443 0.853513188476562  9.01843513362631 0.850861861979169  C 8.84641969549956 0.811549629638478  8.67357271980369 0.77530801562407  8.49999390804037 0.742157924804687  C 8.44235120996095 0.731084794921877  8.38367917578125 0.721103378906257  8.32552178906251 0.71065406412761  C 8.00099586988205 0.651896201644654  7.67425874091909 0.603725759543856  7.34593893766277 0.566235402018236  C 7.28709535432943 0.559529127604172  7.22859486930339 0.552043084309901  7.16957973681641 0.545960662434901  C 6.97730999973904 0.525595357777618  6.78461514335037 0.508696397936269  6.59160869010417 0.495273738606777  L 5.45865508919271 0.495273738606777  C 5.38076880859375 0.499484640299478  5.30305411832682 0.499484640299478  5.22516783772787 0.495273738606777  L 4.46174511442057 0.495273738606777  C 4.26868229413431 0.508703888686689  4.07593042883447 0.525602832276121  3.88360251855469 0.545960662434901  C 3.82458738606771 0.552043084309894  3.76625845019531 0.559529165039066  3.70758641601563 0.566235402018236  C 3.57394456038412 0.581675424804693  3.44081735221354 0.598363115234385  3.30889107047526 0.616922288411466  C 3.11382333820196 0.644597177762677  2.91940884772768 0.675951844564139  2.72577334326172 0.710966009114586  C 2.66864529264323 0.721259332682301  2.6110025945638 0.731084794921884  2.55421768343099 0.742001971028657  C 2.37619064934913 0.77590520166207  2.19893729173024 0.813083220512638  2.0225666788737 0.853513151041675  L 2.01210180989583 0.855696578776048  C 1.83542724425134 0.896999637969898  1.65966308729913 0.941456753348938  1.48491124804688 0.989042148437505  C 1.42829788606771 1.00448217122397  1.37254226985677 1.02101387044271  1.31644359651693 1.03707770833334  C 1.19844198211825 1.07059356120157  1.08097161295346 1.10563606753543  0.964068251953126 1.14219455891928  C 0.92563980029297 1.15420344889323  0.887382856608074 1.16668023763021  0.849125954101559 1.1791569889323  Z " fill-rule="nonzero" fill="#fefefe" stroke="none" transform="matrix(1 0 0 1 16 49 )" />
  </g>
</svg>