<?xml version="1.0" encoding="utf-8"?>
<svg version="1.1" xmlns:xlink="http://www.w3.org/1999/xlink" width="11px" height="6px" xmlns="http://www.w3.org/2000/svg">
  <g transform="matrix(1 0 0 1 -16 -51 )">
    <path d="M 9.76504538102213 0.34764170591518  C 9.6229972874349 0.144395044084824  9.44543716015625 0.0779829291294689  9.23202190087891 0.218346679687507  L 7.37441716780599 1.43702464118304  L 5.64324897884114 2.57998638448661  L 5.52161601692708 2.66019422544643  L 7.37441716780599 3.87887222544643  L 9.23202190087891 5.09755018694197  C 10.2977256805013 5.798406328125  10.4751142586263 1.36098760379465  9.76504538102213 0.34764170591518  Z M 3.66418283300781 1.43686423158482  L 1.80640655078125 0.218346679687507  C 1.59436376708984 0.0787850156250016  1.41766142675781 0.1437533671875  1.27612798063151 0.343952169642861  C 0.564171979980468 1.35072100446428  0.743619189127603 5.79904796651786  1.80640655078125 5.09738973883928  L 3.66401128385417 3.87871177734375  L 5.51681243473307 2.66003381584822  L 5.39517947281901 2.57966556529018  L 3.66418283300781 1.43686423158482  Z " fill-rule="nonzero" fill="#cfe07d" stroke="none" transform="matrix(1 0 0 1 16 51 )" />
  </g>
</svg>