<?xml version="1.0" encoding="utf-8"?>
<svg version="1.1" xmlns:xlink="http://www.w3.org/1999/xlink" width="29px" height="22px" xmlns="http://www.w3.org/2000/svg">
  <g transform="matrix(1 0 0 1 -32 -172 )">
    <path d="M 8.56533333333334 4.46875  C 9.11288888888892 5.00347222222217  9.38666666666667 5.65277777777783  9.38666666666667 6.41666666666663  C 9.38666666666667 7.18055555555557  9.11288888888892 7.82986111111109  8.56533333333334 8.36458333333337  C 8.01777777777775 8.89930555555557  7.35288888888892 9.16666666666663  6.57066666666664 9.16666666666663  C 5.78844444444445 9.16666666666663  5.12355555555556 8.89930555555557  4.576 8.36458333333337  C 4.02844444444445 7.82986111111109  3.75466666666666 7.18055555555557  3.75466666666666 6.41666666666663  C 3.75466666666666 5.65277777777783  4.02844444444445 5.00347222222217  4.576 4.46875  C 5.12355555555556 3.93402777777783  5.78844444444445 3.66666666666663  6.57066666666664 3.66666666666663  C 7.35288888888892 3.66666666666663  8.01777777777775 3.93402777777783  8.56533333333334 4.46875  Z M 18.304 5.95833333333337  L 24.4053333333334 11.9166666666666  L 24.4053333333334 18  L 3.75466666666666 18  L 3.75466666666666 15.5833333333334  L 8.44799999999999 11  L 10.7946666666667 13.2916666666666  L 18.304 5.95833333333337  Z M 26.1433333333333 1.96940104166663  C 26.0504444444445 1.87868923611109  25.9404444444445 1.83333333333337  25.8133333333333 2  L 2.34666666666668 2  C 2.21955555555556 1.83333333333337  2.10955555555556 1.87868923611109  2.01666666666668 1.96940104166663  C 1.92377777777775 2.06011284722217  1.87733333333332 2.16753472222217  2 2.29166666666663  L 2 19.7083333333334  C 1.87733333333332 19.8324652777778  1.92377777777775 19.9398871527778  2.01666666666668 20.0305989583334  C 2.10955555555556 20.1213107638889  2.21955555555556 20.1666666666666  2.34666666666668 20  L 25.8133333333333 20  C 25.9404444444445 20.1666666666666  26.0504444444445 20.1213107638889  26.1433333333333 20.0305989583334  C 26.2362222222223 19.9398871527778  26.2826666666667 19.8324652777778  26 19.7083333333334  L 26 2.29166666666663  C 26.2826666666667 2.16753472222217  26.2362222222223 2.06011284722217  26.1433333333333 1.96940104166663  Z M 27.4706666666667 0.673177083333371  C 27.9302222222222 1.12196180555557  28.16 1.66145833333337  28 2.29166666666663  L 28 19.7083333333334  C 28.16 20.3385416666666  27.9302222222222 20.8780381944444  27.4706666666667 21.3268229166666  C 27.0111111111111 21.7756076388889  26.4586666666667 22  25.8133333333333 22  L 2.34666666666668 22  C 1.70133333333332 22  1.14888888888888 21.7756076388889  0.689333333333359 21.3268229166666  C 0.229777777777798 20.8780381944444  0 20.3385416666666  0 19.7083333333334  L 0 2.29166666666663  C 0 1.66145833333337  0.229777777777798 1.12196180555557  0.689333333333359 0.673177083333371  C 1.14888888888888 0.224392361111086  1.70133333333332 0  2.34666666666668 0  L 25.8133333333333 0  C 26.4586666666667 0  27.0111111111111 0.224392361111086  27.4706666666667 0.673177083333371  Z " fill-rule="nonzero" fill="#ffffff" stroke="none" transform="matrix(1 0 0 1 32 172 )" />
  </g>
</svg>