<?xml version="1.0" encoding="utf-8"?>
<svg version="1.1" xmlns:xlink="http://www.w3.org/1999/xlink" width="12px" height="20px" xmlns="http://www.w3.org/2000/svg">
  <g transform="matrix(1 0 0 1 -816 -264 )">
    <path d="M 11.4002794108073 19.4218687011719  C 11.1721514811198 19.6515505371094  10.872124601237 19.7656145019531  10.5721397135417 19.7656145019531  C 10.2721548258463 19.7656145019531  9.97212794596354 19.6515505371094  9.7432440592448 19.4226666503906  L 1.15027101236979 10.8296935791016  C 0.692461246744784 10.3726817626953  0.692461246744784 9.63046799316407  1.15027101236979 9.17265822753907  L 9.74324408365885 0.578887255859371  C 10.2010538492839 0.12107749023437  10.9424696695964 0.12107749023437  11.4002794352214 0.578887255859371  C 11.8580892008464 1.03589907226564  11.8580892008464 1.77811284179688  11.4002794352214 2.23592260742188  L 3.63620201822917 10.0007559570313  L 11.4002794108073 17.7648333496094  C 11.8580891764323 18.2226431152344  11.8580891764323 18.9640589355469  11.4002794108073 19.4218687011719  Z " fill-rule="nonzero" fill="#cccccc" stroke="none" transform="matrix(1 0 0 1 816 264 )" />
  </g>
</svg>