<?xml version="1.0" encoding="utf-8"?>
<svg version="1.1" xmlns:xlink="http://www.w3.org/1999/xlink" width="16px" height="13px" xmlns="http://www.w3.org/2000/svg">
  <g transform="matrix(1 0 0 1 -1150 -264 )">
    <path d="M 14.7678254545455 4.06650947368422  C 15.0718836363636 4.2981557894737  15.3397527272728 4.53319578947369  15.5716654545454 4.77173894736842  C 15.8033454545454 5.01028210526317  15.9192436363637 5.24543157894738  15.9192436363637 5.47696842105265  C 15.9192436363637 5.73609263157894  15.8142836363637 5.94737684210526  15.6042472727273 6.1109305263158  C 15.3942109090909 6.27459368421054  15.1371636363637 6.45850947368422  14.8329890909091 6.66311578947369  C 14.3695127272727 6.99022315789472  13.8804363636364 7.33429894736844  13.3664581818181 7.69545263157895  C 12.8522472727273 8.05649684210525  12.3634036363637 8.39750736842106  11.8998109090909 8.71793684210525  C 11.4362181818182 9.03836631578946  11.0269672727273 9.31785263157894  10.6717090909091 9.55606736842105  C 10.3165672727273 9.79417263157896  10.0666181818182 9.95422315789475  9.92197818181819 10.0362189473684  C 9.44407272727273 10.3086989473684  9.07461818181815 10.4075536842105  8.81373090909091 10.3326736842105  C 8.55272727272728 10.2574652631579  8.38597818181819 10.1112084210527  8.31360000000001 9.89291789473683  L 8.31360000000001 7.52149894736843  L 8.22679272727277 7.52149894736843  C 7.12564363636363 7.52149894736843  6.1625018181818 7.63403789473685  5.3365527272727 7.85900631578946  C 4.5109527272727 8.08408421052633  3.7865890909091 8.42487578947367  3.1635781818182 8.88159999999999  C 2.54045090909091 9.3382147368421  1.99703272727271 9.90397473684209  1.5333236363636 10.5786610526316  C 1.06984727272726 11.2533473684211  0.649425454545451 12.0335663157895  0.272640000000024 12.9194273684211  C 0.229120000000023 12.8920589473684  0.185483636363642 12.8168505263158  0.141847272727261 12.69424  C 0.112756363636379 12.5853136842105  0.0872727272727047 12.4285473684211  0.0660945454545754 12.2239410526316  C 0.0446836363636294 12.0193347368421  0.0338618181818333 11.7331705263158  0.0333963636363706 11.3647915789474  C 0.0333963636363706 10.2200252631579  0.21818181818179 9.15024842105262  0.587752727272743 8.15535157894737  C 0.95732363636364 7.1604547368421  1.48596363636364 6.29167157894736  2.17390545454549 5.54889263157895  C 2.86184727272723 4.80611368421052  3.69489454545453 4.2234947368421  4.67327999999998 3.80081684210526  C 5.65143272727272 3.37824842105263  6.74885818181821 3.17364210526318  7.96532363636368 3.18721684210527  C 8.0377018181818 3.18721684210527  8.09925818181819 3.19061052631579  8.15034181818186 3.19761684210528  C 8.20130909090909 3.20462315789473  8.26286545454548 3.20812631578949  8.3352436363636 3.20812631578949  L 8.31360000000001 1.06156631578949  C 8.34292363636365 0.679941052631563  8.50955636363636 0.403957894736834  8.81373090909091 0.233397894736868  C 9.11778909090907 0.0628378947368446  9.50167272727271 0.134324210526302  9.96526545454543 0.447856842105267  C 10.1104872727273 0.557002105263138  10.3749818181818 0.754492631578955  10.7587490909091 1.04065684210528  C 11.1425163636363 1.32671157894737  11.5735272727273 1.64714105263158  12.0514327272727 2.00161684210528  C 12.5294545454545 2.35631157894738  13.0148072727273 2.72085894736841  13.5076072727273 3.09558736842106  C 14.0005236363637 3.47009684210525  14.4207127272727 3.79370105263158  14.7685236363636 4.06640000000002  Z " fill-rule="nonzero" fill="#bcbcbc" stroke="none" transform="matrix(1 0 0 1 1150 264 )" />
  </g>
</svg>