<?xml version="1.0" encoding="utf-8"?>
<svg version="1.1" xmlns:xlink="http://www.w3.org/1999/xlink" width="19px" height="19px" xmlns="http://www.w3.org/2000/svg">
  <g transform="matrix(1 0 0 1 -1143 -265 )">
    <path d="M 18.831950990991 12.7228421818182  C 18.8250493693694 12.0534894545455  18.2851891891892 11.5128116363636  17.6200043243243 11.5128116363636  C 16.9504374774775 11.5128116363636  16.407729009009 12.0604538181818  16.407729009009 12.7358865454545  C 16.407729009009 12.7522472727273  16.4083863063063 12.7683869090909  16.4090436036036 12.7846370909091  L 16.4090436036036 16.4630370909091  L 2.53064936936937 16.4630370909091  L 2.53064936936937 2.45891781818182  L 6.90529153153153 2.45891781818182  C 6.91558918918923 2.45902836363635  6.92588684684682 2.45969163636366  6.9360749549549 2.45969163636366  C 7.60564180180182 2.45969163636366  8.14835027027027 1.91204945454544  8.14835027027027 1.23661672727272  C 8.14835027027027 0.561847272727277  7.60684684684685 0.0147578181818062  6.93837549549551 0.0135418181818068  L 2.35854702702704 0.0134312727272743  C 1.12030846846847 0.0134312727272743  0.107194234234214 1.03575563636363  0.107194234234214 2.28525090909091  L 0.107194234234214 16.6369250909091  C 0.107194234234214 17.8863098181818  1.12030846846847 18.9087447272727  2.35854702702704 19  L 16.5810363963964 19  C 17.8191654054054 18.9087447272727  18.8321700900901 17.8863098181818  18.8321700900901 16.6369250909091  L 18.8321700900901 12.7229527272727  Z " fill-rule="nonzero" fill="#bcbcbc" stroke="none" transform="matrix(1 0 0 1 1143 265 )" />
  </g>
</svg>