<?xml version="1.0" encoding="utf-8"?>
<svg version="1.1" xmlns:xlink="http://www.w3.org/1999/xlink" width="28px" height="28px" xmlns="http://www.w3.org/2000/svg">
  <g transform="matrix(1 0 0 1 -815 -860 )">
    <path d="M 27.8541666666666 14  C 27.8541666666666 21.6197916666669  21.6197916666666 27.8541666666669  14 27.8541666666669  C 6.38020833333337 27.8541666666669  0.145833333333371 21.6197916666669  0.145833333333371 14  C 0.145833333333371 6.38020833333314  6.38020833333337 0.145833333333144  14 0.145833333333144  C 21.6197916666666 0.145833333333144  27.8541666666666 6.38020833333314  27.8541666666666 14  Z M 25.7760416666666 14  C 25.7760416666666 7.53472222222251  20.4652777777778 2.22395833333314  14 2.22395833333314  C 7.53472222222223 2.22395833333314  2.22395833333337 7.53472222222251  2.22395833333337 14  C 2.22395833333337 20.4652777777775  7.53472222222223 25.7760416666669  14 25.7760416666669  C 20.4652777777778 25.7760416666669  25.7760416666666 20.4652777777775  25.7760416666666 14  Z M 9.84375 10.7673611111112  L 9.84375 12.8454861111112  C 9.84375 13.5381944444443  9.15104166666663 14  8.68923611111126 14  C 7.99652777777777 14  7.53472222222223 13.5381944444443  7.53472222222223 12.8454861111112  L 7.53472222222223 10.7673611111112  C 7.53472222222223 10.0746527777775  7.99652777777777 9.61284722222251  8.68923611111126 9.61284722222251  C 9.3819444444444 9.61284722222251  9.84375 10.0746527777775  9.84375 10.7673611111112  Z M 20.4652777777778 10.7673611111112  L 20.4652777777778 12.8454861111112  C 20.4652777777778 13.5381944444443  20.0034722222222 14  19.3107638888888 14  C 18.6180555555556 14  18.15625 13.5381944444443  18.15625 12.8454861111112  L 18.15625 10.7673611111112  C 18.15625 10.0746527777775  18.6180555555556 9.61284722222251  19.3107638888888 9.61284722222251  C 20.0034722222222 9.61284722222251  20.4652777777778 10.0746527777775  20.4652777777778 10.7673611111112  Z M 17.9253472222222 16.7708333333331  C 18.15625 16.5399305555557  18.3871527777778 16.3090277777775  18.6180555555556 16.3090277777775  C 18.8489583333334 16.3090277777775  19.0798611111112 16.3090277777775  19.3107638888888 16.5399305555557  C 19.7725694444444 17.0017361111112  19.7725694444444 17.6944444444443  19.3107638888888 18.15625  C 17.9253472222222 19.7725694444443  15.8472222222222 20.4652777777775  13.7690972222222 20.4652777777775  C 11.6909722222222 20.4652777777775  9.61284722222223 19.5416666666669  8.2274305555556 18.15625  C 7.765625 17.6944444444443  7.765625 17.0017361111112  8.2274305555556 16.5399305555557  C 8.92013888888874 16.3090277777775  9.61284722222223 16.3090277777775  10.0746527777778 16.7708333333331  C 12.1527777777778 19.0798611111112  15.8472222222222 18.8489583333331  17.9253472222222 16.7708333333331  Z " fill-rule="nonzero" fill="#bcbcbc" stroke="none" transform="matrix(1 0 0 1 815 860 )" />
  </g>
</svg>