<?xml version="1.0" encoding="utf-8"?>
<svg version="1.1" xmlns:xlink="http://www.w3.org/1999/xlink" width="28px" height="28px" xmlns="http://www.w3.org/2000/svg">
  <g transform="matrix(1 0 0 1 -1138 -860 )">
    <path d="M 23.7533042187501 23.7148400773737  C 21.1493996394232 26.307883568209  17.6850854822716 27.7369899722054  14 27.7369899722054  C 10.3149145177284 27.7369899722054  6.85060036057683 26.3088902118391  4.24473549954928 23.7158467210037  C 1.63786399489186 21.1208429484677  0.201923076923038 17.6713104740084  0.201923076923038 14.0000529747598  C 0.201923076923038 10.3297491443809  1.63791700045067 6.87926303185088  4.2437818614784 4.28521289738558  C 6.8496467225059 1.69216940655053  10.3139608488582 0.264069646183771  13.9990463619291 0.264069646183771  C 17.684131875 0.264069646183771  21.1484460013522 1.69216940655053  23.7533042187501 4.28521289738558  C 26.3611293614784 6.87926300105198  27.7961166413761 10.3297491443809  27.7961166413761 13.9990463311299  C 27.7971232850061 17.6703037995794  26.3611293614784 21.1208429176681  23.7533042187501 23.7148400773737  Z M 22.3635625886417 5.68268970477777  C 20.1312659690506 3.45924088641823  17.1597800045072 2.23416387394843  14 2.23416387394843  C 10.8392663266226 2.23416387394843  7.86873403094938 3.45823424278831  5.63543076772834 5.68173606670655  C 3.40308114257817 7.90322460336551  2.17307692307691 10.8579685727165  2.17307692307691 14  C 2.17307692307691 17.1420314272835  3.40207452974761 20.0967753966345  5.63442412409864 22.3172572896633  C 7.86772738731969 24.540706108023  10.8382596829928 25.764829482422  13.9989933563702 25.764829482422  C 17.1587733608775 25.764829482422  20.1302593254206 24.5407591135818  22.3635625886417 22.3172572896633  C 24.5959122137922 20.0947621093751  25.8259164332932 17.141024783654  25.8249097896635 13.9989933563701  C 25.8249097896635 10.8569619290867  24.5959121829929 7.90322460336551  22.3635625886417 5.68268970477777  Z M 21.8847213341347 14  C 21.8847213341347 13.455939301382  21.4440793164062 13.0144495643027  20.8990649489184 13.0144495643027  L 14.9856034104568 13.0144495643027  L 14.9856034104568 7.10098802584116  C 14.9856034104568 6.55692732722389  14.5440606986178 6.11538461538453  14 6.11538461538453  C 13.4559393013822 6.11538461538453  13.0143965895432 6.55692732722389  13.0143965895432 7.10098802584116  L 13.0143965895432 13.0144495643027  L 7.10098802584139 13.0144495643027  C 6.55692732722355 13.0144495643027  6.11538461538458 13.4559922761418  6.11538461538458 14.0000529747598  C 6.11538461538458 14.5441136733772  6.55692732722355 14.9856563852163  7.10098802584139 14.9856563852163  L 13.014449564303 14.9856563852163  L 13.014449564303 20.899117923678  C 13.014449564303 21.4441322911659  13.4559922761419 21.8847213341345  14.0000529747595 21.8847213341345  C 14.5441136733775 21.8847213341345  14.9856563852164 21.4441852659255  14.9856563852164 20.899117923678  L 14.9856563852164 14.9856034104565  L 20.8991179236779 14.9856034104565  C 21.4441322911659 14.9856034104565  21.8847213341347 14.544060698618  21.8847213341347 14  Z " fill-rule="nonzero" fill="#bcbcbc" stroke="none" transform="matrix(1 0 0 1 1138 860 )" />
  </g>
</svg>