<?xml version="1.0" encoding="utf-8"?>
<svg version="1.1" xmlns:xlink="http://www.w3.org/1999/xlink" width="34px" height="27px" xmlns="http://www.w3.org/2000/svg">
  <g transform="matrix(1 0 0 1 -889 -445 )">
    <path d="M 10.3416666666666 5.484375  C 11.0027777777778 6.140625  11.3333333333334 6.9375  11.3333333333334 7.875  C 11.3333333333334 8.8125  11.0027777777778 9.609375  10.3416666666666 10.265625  C 9.68055555555554 10.921875  8.87777777777779 11.25  7.93333333333334 11.25  C 6.98888888888888 11.25  6.18611111111113 10.921875  5.52499999999998 10.265625  C 4.86388888888888 9.609375  4.53333333333336 8.8125  4.53333333333336 7.875  C 4.53333333333336 6.9375  4.86388888888888 6.140625  5.52499999999998 5.484375  C 6.18611111111113 4.828125  6.98888888888888 4.5  7.93333333333334 4.5  C 8.87777777777779 4.5  9.68055555555554 4.828125  10.3416666666666 5.484375  Z M 22.1 7.3125  L 29.4666666666666 14.625  L 29.4666666666666 22  L 4.53333333333336 22  L 4.53333333333336 19.125  L 10.2 13.5  L 13.0333333333334 16.3125  L 22.1 7.3125  Z M 31.5651041666666 2.4169921875  C 31.4529513888889 2.3056640625  31.3201388888889 2.25  31.1666666666666 2.25  L 2.83333333333337 2.25  C 2.67986111111111 2.25  2.54704861111111 2.3056640625  2.43489583333337 2.4169921875  C 2.32274305555552 2.5283203125  2.26666666666665 2.66015625  2.26666666666665 2.8125  L 2.26666666666665 24.1875  C 2.26666666666665 24.33984375  2.32274305555552 24.4716796875  2.43489583333337 24.5830078125  C 2.54704861111111 24.6943359375  2.67986111111111 24.75  2.83333333333337 24.75  L 31.1666666666666 24.75  C 31.3201388888889 24.75  31.4529513888889 24.6943359375  31.5651041666666 24.5830078125  C 31.6772569444445 24.4716796875  31.7333333333333 24.33984375  31.7333333333333 24.1875  L 31.7333333333333 2.8125  C 31.7333333333333 2.66015625  31.6772569444445 2.5283203125  31.5651041666666 2.4169921875  Z M 33.1677083333333 0.826171875  C 33.7225694444444 1.376953125  34 2.0390625  34 2.8125  L 34 24.1875  C 34 24.9609375  33.7225694444444 25.623046875  33.1677083333333 26.173828125  C 32.6128472222222 26.724609375  31.9458333333334 27  31.1666666666666 27  L 2.83333333333337 27  C 2.05416666666667 27  1.38715277777777 26.724609375  0.832291666666663 26.173828125  C 0.277430555555554 25.623046875  0 24.9609375  0 24.1875  L 0 2.8125  C 0 2.0390625  0.277430555555554 1.376953125  0.832291666666663 0.826171875  C 1.38715277777777 0.275390625  2.05416666666667 0  2.83333333333337 0  L 31.1666666666666 0  C 31.9458333333334 0  32.6128472222222 0.275390625  33.1677083333333 0.826171875  Z " fill-rule="nonzero" fill="#ffffff" stroke="none" transform="matrix(1 0 0 1 889 445 )" />
  </g>
</svg>