<?xml version="1.0" encoding="utf-8"?>
<svg version="1.1" xmlns:xlink="http://www.w3.org/1999/xlink" width="33px" height="28px" xmlns="http://www.w3.org/2000/svg">
  <g transform="matrix(1 0 0 1 -879 -545 )">
    <path d="M 8.94287109375 7.79736211031172  C 9.21142578125 7.52318145483611  9.345703125 7.15667466027179  9.345703125 6.69784172661872  C 9.345703125 6.23900879296565  9.21142578125 5.86970423661069  8.94287109375 5.58992805755395  C 8.67431640625 5.31015187849721  8.31982421875 5.17026378896884  7.87939453125 5.17026378896884  C 7.41748046875 5.17026378896884  7.00927734375 5.3129496402878  6.65478515625 5.59832134292566  C 6.30029296875 5.88369304556358  6.123046875 6.25019984012789  6.123046875 6.69784172661872  C 6.123046875 7.13429256594725  6.30029296875 7.49520383693044  6.65478515625 7.78057553956836  C 7.00927734375 8.06594724220622  7.41748046875 8.20863309352518  7.87939453125 8.20863309352518  C 8.31982421875 8.20863309352518  8.67431640625 8.07154276578734  8.94287109375 7.79736211031172  Z M 20.906982421875 16.0647482014389  C 21.180908203125 15.8185451638689  21.31787109375 15.533173461231  21.31787109375 15.2086330935252  C 21.31787109375 14.8952837729816  21.180908203125 14.6155075939249  20.906982421875 14.3693045563549  C 20.633056640625 14.1231015187849  20.28125 14  19.8515625 14  C 19.5615234375 14  19.295654296875 14.1258992805755  19.053955078125 14.3776978417266  C 18.812255859375 14.6294964028777  18.69140625 14.9064748201439  18.69140625 15.2086330935252  C 18.69140625 15.5219824140688  18.812255859375 15.8045563549161  19.053955078125 16.0563549160672  C 19.295654296875 16.3081534772182  19.5615234375 16.4340527577938  19.8515625 16.4340527577938  C 20.28125 16.4340527577938  20.633056640625 16.3109512390088  20.906982421875 16.0647482014389  Z M 17.120361328125 7.79736211031172  C 17.383544921875 7.52318145483611  17.51513671875 7.15667466027179  17.51513671875 6.69784172661872  C 17.51513671875 6.23900879296565  17.383544921875 5.86970423661069  17.120361328125 5.58992805755395  C 16.857177734375 5.31015187849721  16.50537109375 5.17026378896884  16.06494140625 5.17026378896884  C 15.60302734375 5.17026378896884  15.19482421875 5.3129496402878  14.84033203125 5.59832134292566  C 14.48583984375 5.88369304556358  14.30859375 6.25019984012789  14.30859375 6.69784172661872  C 14.30859375 7.13429256594725  14.48583984375 7.49520383693044  14.84033203125 7.78057553956836  C 15.19482421875 8.06594724220622  15.60302734375 8.20863309352518  16.06494140625 8.20863309352518  C 16.50537109375 8.20863309352518  16.857177734375 8.07154276578734  17.120361328125 7.79736211031172  Z M 27.328125 16.0647482014389  C 27.607421875 15.8185451638689  27.7470703125 15.533173461231  27.7470703125 15.2086330935252  C 27.7470703125 14.8952837729816  27.607421875 14.6155075939249  27.328125 14.3693045563549  C 27.048828125 14.1231015187849  26.69970703125 14  26.28076171875 14  C 25.99072265625 14  25.724853515625 14.1258992805755  25.483154296875 14.3776978417266  C 25.241455078125 14.6294964028777  25.12060546875 14.9064748201439  25.12060546875 15.2086330935252  C 25.12060546875 15.5219824140688  25.241455078125 15.8045563549161  25.483154296875 16.0563549160672  C 25.724853515625 16.3081534772182  25.99072265625 16.4340527577938  26.28076171875 16.4340527577938  C 26.69970703125 16.4340527577938  27.048828125 16.3109512390088  27.328125 16.0647482014389  Z M 21.261474609375 4.17146282973619  C 22.394775390625 5.47521982414071  23.1279296875 6.93285371702638  23.4609375 8.5443645083933  C 23.1279296875 8.49960031974422  22.751953125 8.47721822541968  22.3330078125 8.47721822541968  C 20.517578125 8.47721822541968  18.84716796875 8.90807354116708  17.32177734375 9.76978417266184  C 15.79638671875 10.6314948041567  14.595947265625 11.7981614708233  13.720458984375 13.2697841726618  C 12.844970703125 14.7414068745004  12.4072265625 16.3501199040767  12.4072265625 18.0959232613909  C 12.4072265625 18.968824940048  12.53076171875 19.8193445243805  12.77783203125 20.6474820143885  C 12.40185546875 20.6810551558753  12.03662109375 20.6978417266187  11.68212890625 20.6978417266187  C 11.40283203125 20.6978417266187  11.13427734375 20.689448441247  10.87646484375 20.6726618705036  C 10.61865234375 20.6558752997602  10.3232421875 20.6195043964828  9.990234375 20.5635491606715  C 9.6572265625 20.5075939248601  9.418212890625 20.4684252597922  9.273193359375 20.4460431654676  C 9.128173828125 20.4236610711431  8.83544921875 20.3649080735412  8.39501953125 20.2697841726618  C 7.95458984375 20.1746602717826  7.68603515625 20.1159072741806  7.58935546875 20.0935251798561  L 3.5126953125 22.2254196642686  L 4.6728515625 18.5659472422062  C 1.5576171875 16.2941646682654  0 13.5523581135092  0 10.3405275779377  C 0 8.44924060751401  0.523681640625 6.70903277378096  1.571044921875 5.11990407673864  C 2.618408203125 3.53077537969625  4.036376953125 2.28017585931252  5.824951171875 1.36810551558756  C 7.613525390625 0.456035171862482  9.56591796875 0  11.68212890625 0  C 13.57275390625 0  15.358642578125 0.369304556354905  17.039794921875 1.10791366906477  C 18.720947265625 1.84652278177458  20.128173828125 2.86770583533172  21.261474609375 4.17146282973619  Z M 31.622314453125 13.5383693045563  C 32.540771484375 14.8980815347722  33 16.3725019984013  33 17.9616306954437  C 33 19.2709832134292  32.632080078125 20.5215827338129  31.896240234375 21.7134292565947  C 31.160400390625 22.9052757793765  30.1640625 23.9880095923261  28.9072265625 24.9616306954437  L 29.79345703125 28  L 26.5869140625 26.1702637889688  C 24.9755859375 26.5843325339728  23.8046875 26.7913669064748  23.07421875 26.7913669064748  C 21.2587890625 26.7913669064748  19.58837890625 26.3968824940048  18.06298828125 25.6079136690648  C 16.53759765625 24.8189448441247  15.337158203125 23.7474020783374  14.461669921875 22.3932853717026  C 13.586181640625 21.039168665068  13.1484375 19.5619504396483  13.1484375 17.9616306954437  C 13.1484375 16.361310951239  13.586181640625 14.8840927258194  14.461669921875 13.5299760191846  C 15.337158203125 12.17585931255  16.53759765625 11.1043165467626  18.06298828125 10.3153477218225  C 19.58837890625 9.52637889688248  21.2587890625 9.13189448441244  23.07421875 9.13189448441244  C 24.8037109375 9.13189448441244  26.43115234375 9.52637889688248  27.95654296875 10.3153477218225  C 29.48193359375 11.1043165467626  30.703857421875 12.1786570743405  31.622314453125 13.5383693045563  Z " fill-rule="nonzero" fill="#a1a1a1" stroke="none" transform="matrix(1 0 0 1 879 545 )" />
  </g>
</svg>