<?xml version="1.0" encoding="utf-8"?>
<svg version="1.1" xmlns:xlink="http://www.w3.org/1999/xlink" width="28px" height="28px" xmlns="http://www.w3.org/2000/svg">
  <g transform="matrix(1 0 0 1 -979 -545 )">
    <path d="M 26.50734375 7.72071875  C 26.376 7.45578124999997  26.23415625 7.19206250000002  26.08490625 6.93324999999999  C 25.4895625 5.90246875000003  24.75715625 4.92775  23.8754375 4.04737499999999  C 23.4984375 3.67037499999998  23.10346875 3.32190624999998  22.6955625 2.99874999999997  C 21.6981875 2.20650000000001  20.6173125 1.56953125000001  19.4874375000001 1.08984375  C 19.4874375000001 1.08984375  19.55665625 14.316875  19.4874375000001 14.73925  L 26.50734375 7.72071875  Z M 18.51146875 0.743875000000003  C 18.2311875 0.648468750000006  17.944875 0.562562500000013  17.6561875 0.482562499999972  C 16.50740625 0.173531249999996  15.29878125 0.00418750000000045  14.0520625 0.00418750000000045  C 13.5175625000001 0.00418750000000045  12.9925625 0.0364374999999768  12.47609375 0.0972187499999677  C 11.2103125 0.240437499999985  9.99703125000002 0.556656250000003  8.85646874999998 1.01587499999999  C 8.85646874999998 1.01587499999999  18.2610625 10.32275  18.51146875 10.66871875  L 18.51146875 0.743875000000003  Z M 1.10656250000005 19.169  C 1.10656250000005 19.169  10.409875 9.76553124999998  10.75821875 9.5161875  L 0.83099999999996 9.5161875  C 0.735562500000015 9.79528125000002  0.649656250000021 10.0828125  0.570843749999995 10.3715625  C 0.261843750000025 11.5216875  0.0924999999999727 12.727875  0.0924999999999727 13.9758125  C 0.0924999999999727 14.5078125  0.125906250000014 15.03509375  0.186718750000011 15.55059375  C 0.329937499999971 16.81753125  0.643656249999992 18.030875  1.10656250000005 19.169  Z M 1.96915624999997 20.98346875  C 2.56215624999999 22.01665625  3.29575 22.990125  4.17862500000001 23.87184375  C 4.55443750000001 24.248875  4.95056249999999 24.596  5.35849999999999 24.91934375  C 6.35699999999997 25.71278125  7.43440625 26.34859375  8.5678125 26.82809375  C 8.56778125 26.828125  8.49618749999996 13.59990625  8.56409374999998 13.17634375  L 1.54671875000003 20.19484375  C 1.67806249999995 20.46334375  1.82006250000001 20.72584375  1.96915624999997 20.98346875  Z M 9.55196875000001 27.242125  C 9.83362499999998 27.3375625  10.11978125 27.42465625  10.4073437500001 27.5023125  C 11.55746875 27.8125  12.7636875 27.98184375  14.011625 27.98184375  C 14.54359375 27.98184375  15.06971875 27.94840625  15.5851562500001 27.88878125  C 16.85096875 27.74440625  18.06428125 27.4295625  19.20478125 26.96890625  C 19.2059374999999 26.9689375  9.80246875 17.66459375  9.55196875000001 17.3161875  L 9.55196875000001 27.242125  Z M 13.1536562499999 19.520875  L 20.17340625 26.53946875  C 20.4406875 26.4070625  20.7020312499999 26.26746875  20.9620312500001 26.1171875  C 21.99284375 25.52415625  22.966375 24.7905625  23.84925 23.90771875  C 24.22490625 23.531875  24.57221875 23.13575  24.8966875 22.72784375  C 25.68759375 21.7303125  26.326 20.65071875  26.8055 19.51965625  C 26.8055625 19.51965625  13.5773125 19.58896875  13.1536562499999 19.520875  Z M 27.8755625000001 12.4403125  C 27.7324375 11.1745  27.4175625 9.96125000000001  26.95690625 8.82190624999998  C 26.95690625 8.82190624999998  17.65265625 18.22534375  17.30425 18.47578125  L 27.23021875 18.47578125  C 27.325625 18.1955  27.4116250000001 17.909125  27.49028125 17.6204375  C 27.80040625 16.469125  27.96996875 15.26421875  27.96996875 14.0163125  C 27.96996875 13.48296875  27.93653125 12.95684375  27.8755625000001 12.4403125  Z M 14.8406875 8.51881250000002  L 7.82203125000001 1.50028125  C 7.55490624999999 1.63381249999998  7.29118749999998 1.77346875000001  7.03353124999995 1.92253125000002  C 6.00037500000002 2.51668749999999  5.02684374999996 3.25046874999998  4.14631250000002 4.13081249999999  C 3.76696874999999 4.50906250000003  3.42099999999999 4.90515625  3.09768749999995 5.31068750000003  C 2.30543749999998 6.30821874999998  1.66843749999998 7.38900000000001  1.18771874999999 8.5211875  C 1.18771874999999 8.5211875  14.41825 8.45078124999998  14.8406875 8.51881250000002  Z " fill-rule="nonzero" fill="#a1a1a1" stroke="none" transform="matrix(1 0 0 1 979 545 )" />
  </g>
</svg>