<?xml version="1.0" encoding="utf-8"?>
<svg version="1.1" xmlns:xlink="http://www.w3.org/1999/xlink" width="29px" height="28px" xmlns="http://www.w3.org/2000/svg">
  <g transform="matrix(1 0 0 1 -1070 -545 )">
    <path d="M 23.145625 17.1755208333333  L 28.4345 11.8453125  C 29.300875 10.9739583333333  28.797 9.48281250000002  27.582625 9.3223958333333  L 20.16225 8.3416666666667  C 19.680125 8.27968750000002  19.259625 7.98072916666672  19.0385 7.54322916666672  L 15.634625 0.842187500000023  C 15.076375 -0.255208333333258  13.510375 -0.233333333333292  12.98475 0.87864583333328  L 9.76575000000003 7.67083333333329  C 9.55550000000005 8.11197916666674  9.14587500000005 8.421875  8.66375000000005 8.49843750000002  L 1.27599999999995 9.68333333333328  C 0.0652499999999918 9.87656249999998  -0.39874999999995 11.3822916666667  0.493000000000052 12.228125  L 5.92325000000005 17.4052083333333  C 6.27487500000007 17.740625  6.44162500000004 18.2328125  6.3655 18.7140625  L 5.20187499999997 26.1479166666667  C 5.00974999999994 27.365625  6.28937499999995 28.2734375  7.36599999999999 27.6864583333333  L 13.938125 24.0989583333333  C 14.365875 23.865625  14.880625 23.8583333333333  15.312 24.0807291666667  L 21.982 27.4895833333333  C 23.073125 28.0473958333333  24.327375 27.103125  24.10625 25.8927083333333  L 22.739625 18.4953125  C 22.6526250000001 18.0140625  22.8048749999999 17.521875  23.145625 17.1755208333333  Z " fill-rule="nonzero" fill="#6699ff" stroke="none" transform="matrix(1 0 0 1 1070 545 )" />
  </g>
</svg>