<?xml version="1.0" encoding="utf-8"?>
<svg version="1.1" xmlns:xlink="http://www.w3.org/1999/xlink" width="8px" height="7px" xmlns="http://www.w3.org/2000/svg">
  <g transform="matrix(1 0 0 1 -1088 -546 )">
    <path d="M 0.229629629629585 0.608854166666731  C 0.229629629629585 0.612500000000011  0.52222222222224 3.13541666666674  2.10000000000002 4.98385416666673  C 3.52592592592589 6.65364583333326  7.49259259259259 6.8067708333333  7.49259259259259 6.8067708333333  C 7.9148148148148 6.78125  8.12222222222226 6.29270833333328  7.8481481481482 5.97916666666674  L 6.16666666666663 4.06145833333329  C 6.05555555555554 3.9375  6.01851851851848 3.76614583333327  6.05925925925931 3.609375  L 6.70740740740746 1.15937500000001  C 6.81481481481478 0.758333333333269  6.40740740740739 0.411979166666697  6.01851851851848 0.572395833333303  L 3.64814814814815 1.5567708333333  C 3.49259259259259 1.62239583333326  3.31851851851854 1.60416666666674  3.17777777777781 1.51666666666671  L 1.01111111111106 0.145833333333258  C 0.655555555555566 -0.0765625000000227  0.196296296296282 0.196874999999977  0.229629629629585 0.608854166666731  Z " fill-rule="nonzero" fill="#6699ff" stroke="none" transform="matrix(1 0 0 1 1088 546 )" />
  </g>
</svg>