<?xml version="1.0" encoding="utf-8"?>
<svg version="1.1" xmlns:xlink="http://www.w3.org/1999/xlink" width="28px" height="28px" xmlns="http://www.w3.org/2000/svg">
  <g transform="matrix(1 0 0 1 -979 -624 )">
    <path d="M 24.2254901960785 21.7377450980392  C 24.5457516339869 21.4174836601308  24.7058823529412 21.0343137254902  24.7058823529412 20.5882352941177  C 24.7058823529412 20.1307189542483  24.5457516339869 19.7418300653595  24.2254901960785 19.4215686274509  L 20.656862745098 15.8529411764706  C 20.3366013071895 15.5326797385621  19.9477124183007 15.3725490196078  19.4901960784314 15.3725490196078  C 19.0098039215686 15.3725490196078  18.5980392156862 15.5555555555555  18.2549019607843 15.9215686274509  C 18.2892156862745 15.9558823529412  18.3978758169935 16.061683006536  18.5808823529412 16.2389705882352  C 18.7638888888889 16.4162581699346  18.8868464052288 16.5392156862745  18.9497549019608 16.6078431372549  C 19.0126633986928 16.6764705882352  19.0984477124183 16.7851307189543  19.2071078431372 16.9338235294117  C 19.3157679738562 17.0825163398692  19.3901143790849 17.2283496732026  19.4301470588235 17.3713235294117  C 19.4701797385621 17.5142973856209  19.4901960784314 17.6715686274509  19.4901960784314 17.843137254902  C 19.4901960784314 18.3006535947712  19.3300653594771 18.6895424836601  19.0098039215686 19.0098039215686  C 18.6895424836601 19.3300653594771  18.3006535947712 19.4901960784314  17.843137254902 19.4901960784314  C 17.671568627451 19.4901960784314  17.5142973856209 19.4701797385621  17.3713235294118 19.4301470588235  C 17.2283496732026 19.3901143790849  17.0825163398693 19.3157679738562  16.9338235294118 19.2071078431372  C 16.7851307189542 19.0984477124183  16.6764705882353 19.0126633986928  16.6078431372549 18.9497549019608  C 16.5392156862745 18.8868464052288  16.4162581699346 18.7638888888889  16.2389705882353 18.5808823529412  C 16.0616830065359 18.3978758169935  15.9558823529412 18.2892156862745  15.921568627451 18.2549019607843  C 15.5441176470588 18.6094771241831  15.3553921568628 19.0269607843137  15.3553921568628 19.5073529411765  C 15.3553921568628 19.9648692810457  15.515522875817 20.3537581699346  15.8357843137255 20.6740196078431  L 19.3700980392157 24.2254901960785  C 19.6789215686275 24.5343137254902  20.0678104575163 24.6887254901961  20.5367647058824 24.6887254901961  C 20.9942810457517 24.6887254901961  21.3831699346405 24.5400326797386  21.703431372549 24.2426470588235  L 24.2254901960785 21.7377450980392  Z M 12.078431372549 9.74509803921569  C 12.4558823529412 9.39052287581694  12.6446078431372 8.9730392156863  12.6446078431372 8.49264705882354  C 12.6446078431372 8.03513071895424  12.484477124183 7.64624183006538  12.1642156862745 7.32598039215685  L 8.62990196078431 3.77450980392155  C 8.30964052287584 3.45424836601308  7.92075163398692 3.29411764705884  7.46323529411762 3.29411764705884  C 7.01715686274514 3.29411764705884  6.62826797385623 3.4485294117647  6.29656862745099 3.75735294117646  L 3.77450980392155 6.26225490196077  C 3.45424836601308 6.5825163398693  3.29411764705884 6.96568627450978  3.29411764705884 7.41176470588238  C 3.29411764705884 7.86928104575162  3.45424836601308 8.25816993464053  3.77450980392155 8.57843137254901  L 7.34313725490199 12.1470588235294  C 7.65196078431376 12.4558823529412  8.04084967320262 12.6102941176471  8.50980392156862 12.6102941176471  C 8.99019607843138 12.6102941176471  9.40196078431376 12.4330065359477  9.74509803921569 12.0784313725491  C 9.71078431372547 12.0441176470588  9.60212418300654 11.938316993464  9.41911764705884 11.7610294117648  C 9.23611111111109 11.5837418300654  9.11315359477123 11.4607843137255  9.05024509803923 11.3921568627451  C 8.98733660130722 11.3235294117648  8.90155228758169 11.2148692810457  8.79289215686276 11.0661764705883  C 8.68423202614377 10.9174836601308  8.60988562091507 10.7716503267974  8.56985294117646 10.6286764705883  C 8.52982026143792 10.4857026143791  8.50980392156862 10.3284313725491  8.50980392156862 10.156862745098  C 8.50980392156862 9.69934640522877  8.66993464052285 9.31045751633985  8.99019607843138 8.99019607843138  C 9.31045751633985 8.66993464052285  9.69934640522877 8.50980392156862  10.156862745098 8.50980392156862  C 10.328431372549 8.50980392156862  10.4857026143791 8.52982026143792  10.6286764705882 8.56985294117646  C 10.7716503267974 8.60988562091501  10.9174836601307 8.68423202614377  11.0661764705882 8.79289215686276  C 11.2148692810458 8.90155228758169  11.3235294117647 8.98733660130716  11.3921568627451 9.05024509803923  C 11.4607843137255 9.11315359477123  11.5837418300654 9.23611111111109  11.7610294117647 9.41911764705878  C 11.9383169934641 9.60212418300648  12.0441176470588 9.71078431372553  12.078431372549 9.74509803921569  Z M 26.5588235294118 17.0882352941177  C 27.5196078431372 18.0490196078431  28 19.2156862745098  28 20.5882352941177  C 28 21.9607843137255  27.5138888888889 23.1217320261438  26.5416666666666 24.0710784313726  L 24.0196078431372 26.5759803921569  C 23.0702614379085 27.5253267973857  21.9093137254902 28  20.5367647058824 28  C 19.1527777777778 28  17.9861111111111 27.5138888888889  17.0367647058824 26.5416666666666  L 13.5024509803922 22.9901960784314  C 12.5531045751634 22.0408496732026  12.078431372549 20.8799019607843  12.078431372549 19.5073529411765  C 12.078431372549 18.1004901960785  12.5816993464052 16.90522875817  13.5882352941176 15.9215686274509  L 12.078431372549 14.4117647058823  C 11.0947712418301 15.4183006535948  9.90522875816993 15.9215686274509  8.50980392156862 15.9215686274509  C 8.12676432378896 15.9215686274509  7.75975905316676 15.8841551974168  7.40878810970202 15.8093283373486  C 6.50212191289279 15.6160274789711  5.7024605168483 15.1730487521424  5.00980392156862 14.4803921568628  L 1.44117647058823 10.9117647058823  C 0.480392156862763 9.95098039215691  0 8.78431372549022  0 7.41176470588238  C 0 6.03921568627453  0.486111111111086 4.87826797385623  1.45833333333337 3.92892156862746  L 3.98039215686276 1.42401960784315  C 4.92973856209147 0.474673202614383  6.09068627450978 0  7.46323529411762 0  C 8.84722222222223 0  10.0138888888889 0.486111111111086  10.9632352941176 1.45833333333331  L 14.4975490196078 5.00980392156862  C 15.4468954248366 5.95915032679738  15.921568627451 7.12009803921569  15.921568627451 8.49264705882354  C 15.921568627451 9.89950980392155  15.4183006535948 11.09477124183  14.4117647058824 12.0784313725491  L 15.921568627451 13.5882352941177  C 16.9052287581699 12.5816993464052  18.0947712418301 12.0784313725491  19.4901960784314 12.0784313725491  C 20.8627450980392 12.0784313725491  22.0294117647059 12.5588235294117  22.9901960784314 13.5196078431372  L 26.5588235294118 17.0882352941177  Z " fill-rule="nonzero" fill="#a1a1a1" stroke="none" transform="matrix(1 0 0 1 979 624 )" />
  </g>
</svg>