<?xml version="1.0" encoding="utf-8"?>
<svg version="1.1" xmlns:xlink="http://www.w3.org/1999/xlink" width="28px" height="28px" xmlns="http://www.w3.org/2000/svg">
  <g transform="matrix(1 0 0 1 -1070 -624 )">
    <path d="M 7.96875 1.38127090301003  C 9.875 0.481233742103314  11.8697916666667 0.0260126347083087  13.953125 0.0156075808249625  C 16.453125 -0.00520252694167311  18.8020833333333 0.619100706057225  21 1.8885172798216  C 23.4166666666667 3.28279450018579  25.25 5.21813452248233  26.5 7.69453734671129  L 14.90625 7.08584169453735  C 13.2395833333333 6.99219620958752  11.7083333333333 7.379784466741  10.3125 8.2486064659978  C 8.91666666666669 9.11742846525453  7.953125 10.311408398365  7.421875 11.8305462653288  L 3.109375 5.21293199554071  C 4.44270833333331 3.55852842809367  6.0625 2.28130806391675  7.96875 1.38127090301003  Z M 0 14  C 0 11.221850613155  0.760416666666686 8.6674098848012  2.28125 6.3366778149387  L 7.546875 16.6845039018953  C 8.296875 18.1724266072092  9.39583333333331 19.3013749535488  10.84375 20.0713489409142  C 12.2916666666667 20.8413229282794  13.8177083333333 21.0754366406541  15.421875 20.7736900780379  L 11.828125 27.8127090301003  C 9.61979166666669 27.4693422519509  7.61458333333331 26.6499442586399  5.8125 25.3545150501673  C 4.01041666666669 24.0590858416946  2.59114583333331 22.4150873281308  1.5546875 20.422519509476  C 0.518229166666686 18.4299516908212  0 16.2891118543292  0 14  Z M 19.171875 9.38015607580826  L 27.0625 8.97435897435895  C 27.6666666666667 10.5351170568562  27.9765625 12.1505016722408  27.9921875 13.8205128205128  C 28.0078125 15.4905239687848  27.7552083333333 17.082497212932  27.234375 18.5964325529543  C 26.7135416666667 20.1103678929766  25.9166666666667 21.5254552211075  24.84375 22.8416945373467  C 23.7708333333333 24.157933853586  22.4895833333333 25.2478632478633  21 26.1114827201784  C 18.6041666666667 27.4953548866592  16.0104166666667 28.1144555927165  13.21875 27.9687848383501  L 19.546875 18.2452619843924  C 20.4635416666667 16.8821999256782  20.8932291666667 15.3708658491267  20.8359375 13.711259754738  C 20.7786458333333 12.0516536603493  20.2239583333333 10.6079524340394  19.171875 9.38015607580826  Z M 10.6640625 10.6677814938685  C 11.5859375 9.7469342251951  12.6979166666667 9.28651059085837  14 9.28651059085837  C 15.3020833333333 9.28651059085837  16.4140625 9.7469342251951  17.3359375 10.6677814938685  C 18.2578125 11.5886287625418  18.71875 12.6993682645857  18.71875 14  C 18.71875 15.3006317354143  18.2578125 16.4113712374582  17.3359375 17.3322185061315  C 16.4140625 18.2530657748049  15.3020833333333 18.7134894091416  14 18.7134894091416  C 12.6979166666667 18.7134894091416  11.5859375 18.2530657748049  10.6640625 17.3322185061315  C 9.7421875 16.4113712374582  9.28125 15.3006317354143  9.28125 14  C 9.28125 12.6993682645857  9.7421875 11.5886287625418  10.6640625 10.6677814938685  Z " fill-rule="nonzero" fill="#a1a1a1" stroke="none" transform="matrix(1 0 0 1 1070 624 )" />
  </g>
</svg>