<?xml version="1.0" encoding="utf-8"?>
<svg version="1.1" xmlns:xlink="http://www.w3.org/1999/xlink" width="39px" height="39px" xmlns="http://www.w3.org/2000/svg">
  <g transform="matrix(1 0 0 1 -971 -723 )">
    <path d="M 38.71875 19.5  C 38.71875 30.0977457212612  30.0977457212612 38.71875  19.5 38.71875  C 8.90225427873884 38.71875  0.28125 30.0977457212612  0.28125 19.5  C 0.28125 8.90225427873884  8.90225427873884 0.28125  19.5 0.28125  C 30.0977457212612 0.28125  38.71875 8.90225427873884  38.71875 19.5  Z M 35.9608905625698 19.5  C 35.9608905625698 10.4232390234375  28.5753589086914 3.03910943743028  19.5 3.03910943743028  C 10.4232390234375 3.03910943743028  3.03910943743023 10.4232389805385  3.03910943743023 19.5  C 3.03910943743023 28.5753589086914  10.4232389805385 35.9608905625697  19.5 35.9608905625697  C 28.5753589086914 35.9608905625697  35.9608905625698 28.5754326949638  35.9608905625698 19.5  Z M 27.3740533175223 25.5195898849051  L 21.4328335484096 19.5590358387974  L 27.3686662761579 13.6876997774832  C 27.9081800882394 13.1550488609096  27.9123125913783 12.2861150348772  27.3796617177037 11.7466012227958  C 26.847010844029 11.2070874107143  25.9766749072265 11.2029549075753  25.4385631630162 11.73560578125  L 19.4944654289899 17.613804738072  L 13.6409877047294 11.7424686767578  C 13.1042042850167 11.2056852570452  12.2366725697544 11.2029548646764  11.6998891500418 11.739738284389  C 11.1631057303292 12.2751195933315  11.1617774487304 13.1440534193639  11.697158757673 13.6808368390765  L 17.5423714756557 19.5439078941127  L 11.649044574149 25.374066453683  C 11.1095307620675 25.9080456518554  11.1053982589286 26.7756511962891  11.6380491326032 27.3151650083705  C 11.9071049832589 27.5869512942941  12.2599179481724 27.7228813089425  12.6140592375837 27.7228813089425  C 12.9627396993583 27.7228813089425  13.3114201611328 27.5897554729353  13.5791476872907 27.3261604499163  L 19.480665808803 21.4891389948382  L 25.430224370466 27.4579580043248  C 25.6979519395229 27.7270138549804  26.0493627936663 27.8615418017578  26.4021757585798 27.8615418017578  C 26.7535866127232 27.8615418017578  27.1036691852678 27.7270138549804  27.3713229251534 27.4606884395927  C 27.9081063448661 26.9253071306501  27.9094346264648 26.0577016291155  27.3740533175223 25.5195898849051  Z " fill-rule="nonzero" fill="#ffffff" stroke="none" transform="matrix(1 0 0 1 971 723 )" />
  </g>
</svg>