<?xml version="1.0" encoding="utf-8"?>
<svg version="1.1" xmlns:xlink="http://www.w3.org/1999/xlink" width="68px" height="68px" xmlns="http://www.w3.org/2000/svg">
  <g transform="matrix(1 0 0 1 -961 -489 )">
    <path d="M 54.3640200943811 7.28973666916346  C 48.7101458723574 2.96881237075746  41.6496911336502 0.399418256138404  34 0.399418256138404  C 15.4736882868303 0.399418256138404  0.399418256138347 15.4735586356027  0.399418256138347 34  C 0.399418256138347 52.5287739564732  15.471225968192 67.6005817438616  34 67.6005817438616  C 52.5287740318081 67.6005817438616  67.6005817438617 52.5287739564732  67.6005817438617 34  C 67.6005817438617 23.1223628717974  62.4047324390464 13.4347812849813  54.3640200943811 7.28973666916346  Z M 50.1973044447544 25.0466958872768  C 51.1402077260045 25.9844155301339  51.1497974720982 27.5103481026786  50.2144104966518 28.4577869921875  L 30.9118493861607 47.9700260797991  C 30.9070545507813 47.9748209151786  30.8973352287946 47.9772831584821  30.8925403180804 47.9845402371652  C 30.8852832393973 47.9893350725446  30.8852832393973 47.9990543945312  30.8780261607143 48.0038493052455  C 30.7236834179688 48.1532675613839  30.5333144335938 48.2448883398438  30.3548677873885 48.3462283649554  C 30.2657092522321 48.3968984151786  30.1933975418527 48.4740049609375  30.0993145954241 48.5101608537947  C 29.8100677539062 48.6258855357143  29.5038445117187 48.6861452566964  29.1977508454241 48.6861452566964  C 28.8891949358259 48.6861452566964  28.578176858259 48.6258855357143  28.2864677734375 48.5053660184152  C 28.1900521595982 48.4644152901786  28.1129456138393 48.3823842578125  28.0213248353795 48.331843858817  C 27.8428781891741 48.2306334095982  27.6573040401786 48.1413452985491  27.502961297433 47.9894647991072  C 27.4981664620536 47.9846699637277  27.49570421875 47.9749506417411  27.4909093833705 47.9701557310268  C 27.4861145479911 47.9628986523438  27.4763952260045 47.9628986523438  27.4716003152902 47.9556415736607  L 17.9781614285714 38.1995219921875  C 17.050031531808 37.2448260239955  17.0716732672992 35.7188934514509  18.0263692354911 34.7907635546875  C 18.981065203683 33.8650959012277  20.5045356082589 33.8819427260045  21.435127672991 34.8389713616072  L 29.2144680189732 42.832914171317  L 46.7885460072545 25.0660049553571  C 47.7239329827009 24.1185660658482  49.2523277232143 24.1089763197544  50.1973044447544 25.0466958872768  Z " fill-rule="nonzero" fill="#6699ff" stroke="none" transform="matrix(1 0 0 1 961 489 )" />
  </g>
</svg>