<?xml version="1.0" encoding="utf-8"?>
<svg version="1.1" xmlns:xlink="http://www.w3.org/1999/xlink" width="1280px" height="190px" xmlns="http://www.w3.org/2000/svg">
  <defs>
    <filter x="351px" y="153px" width="1280px" height="190px" filterUnits="userSpaceOnUse" id="filter49">
      <feOffset dx="0" dy="2" in="SourceAlpha" result="shadowOffsetInner" />
      <feGaussianBlur stdDeviation="7.5" in="shadowOffsetInner" result="shadowGaussian" />
      <feComposite in2="shadowGaussian" operator="atop" in="SourceAlpha" result="shadowComposite" />
      <feColorMatrix type="matrix" values="0 0 0 0 0  0 0 0 0 0  0 0 0 0 0  0 0 0 0.2 0  " in="shadowComposite" />
    </filter>
    <g id="widget50">
      <path d="M 367 170  A 3 3 0 0 1 370 167 L 1612 167  A 3 3 0 0 1 1615 170 L 1615 322  A 3 3 0 0 1 1612 325 L 370 325  A 3 3 0 0 1 367 322 L 367 170  Z " fill-rule="nonzero" fill="#ffffff" stroke="none" />
      <path d="M 366.5 170  A 3.5 3.5 0 0 1 370 166.5 L 1612 166.5  A 3.5 3.5 0 0 1 1615.5 170 L 1615.5 322  A 3.5 3.5 0 0 1 1612 325.5 L 370 325.5  A 3.5 3.5 0 0 1 366.5 322 L 366.5 170  Z " stroke-width="1" stroke="#ffffff" fill="none" stroke-opacity="0.996078431372549" />
    </g>
  </defs>
  <g transform="matrix(1 0 0 1 -351 -153 )">
    <use xlink:href="#widget50" filter="url(#filter49)" />
    <use xlink:href="#widget50" />
  </g>
</svg>