<?xml version="1.0" encoding="utf-8"?>
<svg version="1.1" xmlns:xlink="http://www.w3.org/1999/xlink" width="39px" height="40px" xmlns="http://www.w3.org/2000/svg">
  <g transform="matrix(1 0 0 1 -1072 -480 )">
    <path d="M 1072 480  L 1111 480  L 1111 520  L 1072 520  L 1072 480  " fill-rule="nonzero" fill="#cccccc" stroke="none" />
    <path d="M 1075 483  L 1108 483  L 1108 517  L 1075 517  L 1075 483  " fill-rule="nonzero" fill="#ffffff" stroke="none" />
    <path d="M 1095.205 491.85  C 1093.567 491.85  1092.28 490.563  1092.28 488.925  C 1092.28 487.287  1093.567 486  1095.205 486  C 1096.843 486  1098.13 487.287  1098.13 488.925  C 1098.13 490.563  1096.843 491.85  1095.205 491.85  " fill-rule="nonzero" fill="#cccccc" stroke="none" />
    <path d="M 1076 516  L 1076 498.4  L 1083.75 490.4  L 1094.6 496.8  L 1100.8 495.2  L 1107 496.8  L 1107 516  L 1076 516  " fill-rule="nonzero" fill="#169bd5" stroke="none" />
  </g>
</svg>