<?xml version="1.0" encoding="utf-8"?>
<svg version="1.1" xmlns:xlink="http://www.w3.org/1999/xlink" width="12px" height="12px" viewBox="775 607.5  12 12" xmlns="http://www.w3.org/2000/svg">
  <path d="M 781 607.5  C 784.36 607.5  787 610.14  787 613.5  C 787 616.86  784.36 619.5  781 619.5  C 777.64 619.5  775 616.86  775 613.5  C 775 610.14  777.64 607.5  781 607.5  Z " fill-rule="nonzero" fill="#ffffff" stroke="none" />
  <path d="M 781 608  C 784.08 608  786.5 610.42  786.5 613.5  C 786.5 616.58  784.08 619  781 619  C 777.92 619  775.5 616.58  775.5 613.5  C 775.5 610.42  777.92 608  781 608  Z " stroke-width="1" stroke="#797979" fill="none" />
  <path d="M 781 616.5  C 779.32 616.5  778 615.18  778 613.5  C 778 611.82  779.32 610.5  781 610.5  C 782.68 610.5  784 611.82  784 613.5  C 784 615.18  782.68 616.5  781 616.5  " fill-rule="nonzero" fill="#797979" stroke="none" />
</svg>