<?xml version="1.0" encoding="utf-8"?>
<svg version="1.1" xmlns:xlink="http://www.w3.org/1999/xlink" width="12px" height="12px" viewBox="875 607.5  12 12" xmlns="http://www.w3.org/2000/svg">
  <path d="M 881 607.5  C 884.36 607.5  887 610.14  887 613.5  C 887 616.86  884.36 619.5  881 619.5  C 877.64 619.5  875 616.86  875 613.5  C 875 610.14  877.64 607.5  881 607.5  Z " fill-rule="nonzero" fill="#ffffff" stroke="none" />
  <path d="M 881 608  C 884.08 608  886.5 610.42  886.5 613.5  C 886.5 616.58  884.08 619  881 619  C 877.92 619  875.5 616.58  875.5 613.5  C 875.5 610.42  877.92 608  881 608  Z " stroke-width="1" stroke="#797979" fill="none" />
  <path d="M 881 616.5  C 879.32 616.5  878 615.18  878 613.5  C 878 611.82  879.32 610.5  881 610.5  C 882.68 610.5  884 611.82  884 613.5  C 884 615.18  882.68 616.5  881 616.5  " fill-rule="nonzero" fill="#797979" stroke="none" />
</svg>