<?xml version="1.0" encoding="utf-8"?>
<svg version="1.1" xmlns:xlink="http://www.w3.org/1999/xlink" width="12px" height="12px" viewBox="975 607.5  12 12" xmlns="http://www.w3.org/2000/svg">
  <path d="M 981 607.5  C 984.36 607.5  987 610.14  987 613.5  C 987 616.86  984.36 619.5  981 619.5  C 977.64 619.5  975 616.86  975 613.5  C 975 610.14  977.64 607.5  981 607.5  Z " fill-rule="nonzero" fill="#ffffff" stroke="none" />
  <path d="M 981 608  C 984.08 608  986.5 610.42  986.5 613.5  C 986.5 616.58  984.08 619  981 619  C 977.92 619  975.5 616.58  975.5 613.5  C 975.5 610.42  977.92 608  981 608  Z " stroke-width="1" stroke="#797979" fill="none" />
  <path d="M 981 616.5  C 979.32 616.5  978 615.18  978 613.5  C 978 611.82  979.32 610.5  981 610.5  C 982.68 610.5  984 611.82  984 613.5  C 984 615.18  982.68 616.5  981 616.5  " fill-rule="nonzero" fill="#797979" stroke="none" />
</svg>