<?xml version="1.0" encoding="utf-8"?>
<svg version="1.1" xmlns:xlink="http://www.w3.org/1999/xlink" width="12px" height="12px" viewBox="291 687.5  12 12" xmlns="http://www.w3.org/2000/svg">
  <path d="M 297 687.5  C 300.36 687.5  303 690.14  303 693.5  C 303 696.86  300.36 699.5  297 699.5  C 293.64 699.5  291 696.86  291 693.5  C 291 690.14  293.64 687.5  297 687.5  Z " fill-rule="nonzero" fill="#ffffff" stroke="none" />
  <path d="M 297 688  C 300.08 688  302.5 690.42  302.5 693.5  C 302.5 696.58  300.08 699  297 699  C 293.92 699  291.5 696.58  291.5 693.5  C 291.5 690.42  293.92 688  297 688  Z " stroke-width="1" stroke="#797979" fill="none" />
  <path d="M 297 696.5  C 295.32 696.5  294 695.18  294 693.5  C 294 691.82  295.32 690.5  297 690.5  C 298.68 690.5  300 691.82  300 693.5  C 300 695.18  298.68 696.5  297 696.5  " fill-rule="nonzero" fill="#797979" stroke="none" />
</svg>