<?xml version="1.0" encoding="utf-8"?>
<svg version="1.1" xmlns:xlink="http://www.w3.org/1999/xlink" width="1568px" height="115px" xmlns="http://www.w3.org/2000/svg">
  <defs>
    <filter x="302px" y="137px" width="1568px" height="115px" filterUnits="userSpaceOnUse" id="filter44">
      <feOffset dx="0" dy="2" in="SourceAlpha" result="shadowOffsetInner" />
      <feGaussianBlur stdDeviation="7.5" in="shadowOffsetInner" result="shadowGaussian" />
      <feComposite in2="shadowGaussian" operator="atop" in="SourceAlpha" result="shadowComposite" />
      <feColorMatrix type="matrix" values="0 0 0 0 0  0 0 0 0 0  0 0 0 0 0  0 0 0 0.2 0  " in="shadowComposite" />
    </filter>
    <g id="widget45">
      <path d="M 318 154  A 3 3 0 0 1 321 151 L 1851 151  A 3 3 0 0 1 1854 154 L 1854 231  A 3 3 0 0 1 1851 234 L 321 234  A 3 3 0 0 1 318 231 L 318 154  Z " fill-rule="nonzero" fill="#ffffff" stroke="none" />
      <path d="M 317.5 154  A 3.5 3.5 0 0 1 321 150.5 L 1851 150.5  A 3.5 3.5 0 0 1 1854.5 154 L 1854.5 231  A 3.5 3.5 0 0 1 1851 234.5 L 321 234.5  A 3.5 3.5 0 0 1 317.5 231 L 317.5 154  Z " stroke-width="1" stroke="#ffffff" fill="none" stroke-opacity="0.996078431372549" />
    </g>
  </defs>
  <g transform="matrix(1 0 0 1 -302 -137 )">
    <use xlink:href="#widget45" filter="url(#filter44)" />
    <use xlink:href="#widget45" />
  </g>
</svg>